<?xml version="1.0" encoding="UTF-8"?>
<svg xmlns="http://www.w3.org/2000/svg" width="1000" height="1003" viewBox="0 0 1000 1003" role="img">
  <title>Schriftmuster Because We Learn</title>
  <rect y="172" width="1000" height="400" fill="#efd6e1"/>
  <rect y="572" width="1000" height="431" fill="#dcb1c4"/>
  <path fill="#f3e6ec" transform="translate(399.6 525.6) scale(0.400000 -0.400000)" d="M370 188C420 105 475 -54 535 -54C579 -54 598 -17 598 8C598 29 588 51 576 77C576 78 575 79 415 415L363 525C332 590 285 653 230 653C158 653 126 559 108 475C84 361 60 245 35 131C28 99 23 73 23 51C23 9 42 -8 83 -8C184 -8 139 145 248 162C283 167 318 178 365 190ZM253 392 258 385C278 355 292 340 292 329C292 313 273 307 233 290Z M1011 165C1052 61 1103 -116 1181 -116C1221 -116 1251 -76 1251 -48C1251 -34 1245 -17 1235 1C1202 61 1179 125 1152 185C1182 216 1214 256 1214 280C1214 317 1140 335 1095 361C1049 470 987 658 909 658C881 658 847 637 803 598C763 562 723 535 723 483C723 479 726 475 727 471C739 448 743 429 743 408C743 374 731 340 723 307C700 216 675 127 657 37C654 25 652 15 652 5C652 -44 680 -71 722 -71C769 -71 788 -42 794 4C800 45 814 85 825 133ZM966 297 857 272 894 415 916 417Z"/>
  <rect width="1000" height="172" fill="#f9f0f4"/>
  <path fill="#6e2043" transform="translate(100.0 106.8) scale(0.075000 -0.075000)" d="M210 28C213 -11 219 -47 261 -59C323 -77 390 -101 450 -101C587 -101 729 6 729 147C729 213 695 278 632 316C605 332 576 344 548 360C587 429 624 480 624 542C624 636 548 690 415 690C355 690 303 672 252 672C232 672 212 686 191 686C136 686 100 616 58 573C38 553 23 533 23 508C23 468 51 446 75 446C98 446 123 465 155 470ZM270 543C409 556 427 557 432 557C452 557 482 555 482 532C482 482 368 376 304 332ZM471 28C383 31 327 85 327 147C327 165 343 195 354 196L367 198C407 204 447 211 488 211C555 211 595 188 595 143C595 78 502 43 471 28Z M970 363C960 382 954 398 954 411C954 436 973 450 1002 460L1016 464C1106 493 1197 522 1288 545C1325 554 1362 565 1362 601C1362 640 1308 686 1266 686C1246 686 1222 681 1204 675C1088 638 972 596 857 556C809 539 786 504 786 459C786 412 824 346 831 281C843 175 849 68 861 -39C868 -107 899 -138 948 -138C956 -138 965 -137 973 -135C1082 -117 1192 -101 1301 -81C1366 -70 1425 -55 1425 6C1425 26 1379 66 1348 66C1337 66 1320 60 1305 58C1203 46 1101 35 991 23L969 222C1060 257 1168 279 1269 300L1300 307C1342 316 1373 326 1373 375C1373 423 1333 440 1293 440C1200 440 1082 395 970 363Z M1989 175C1922 143 1850 113 1781 113C1711 113 1619 162 1619 248C1619 287 1634 327 1649 365C1734 378 1788 370 1788 429C1788 496 1714 564 1661 564C1564 564 1484 335 1484 222C1484 75 1616 -25 1796 -25C1861 -25 2041 6 2041 86C2041 122 2020 160 1989 175Z M2453 165C2494 61 2545 -116 2623 -116C2663 -116 2693 -76 2693 -48C2693 -34 2687 -17 2677 1C2644 61 2621 125 2594 185C2624 216 2656 256 2656 280C2656 317 2582 335 2537 361C2491 470 2429 658 2351 658C2323 658 2289 637 2245 598C2205 562 2165 535 2165 483C2165 479 2168 475 2169 471C2181 448 2185 429 2185 408C2185 374 2173 340 2165 307C2142 216 2117 127 2099 37C2096 25 2094 15 2094 5C2094 -44 2122 -71 2164 -71C2211 -71 2230 -42 2236 4C2242 45 2256 85 2267 133ZM2408 297 2299 272 2336 415 2358 417Z M3024 23C2979 23 2942 93 2930 140C2907 232 2891 327 2874 420C2867 459 2880 550 2813 550C2745 550 2745 459 2745 390C2745 233 2775 57 2895 -63C2932 -100 2976 -116 3016 -116C3182 -116 3234 127 3234 332C3234 432 3228 551 3158 630C3143 647 3125 660 3105 660C3073 660 3050 624 3050 588C3050 581 3052 570 3053 562C3083 491 3094 420 3094 349C3094 272 3083 196 3070 120C3064 86 3059 23 3024 23Z M3420 448C3420 491 3501 516 3525 516C3550 516 3595 466 3646 466C3673 466 3695 523 3695 550C3695 621 3605 652 3540 652C3418 652 3288 564 3288 454C3288 374 3340 330 3436 247L3468 219C3509 187 3565 127 3565 86C3565 61 3535 35 3515 35C3477 35 3445 98 3427 98C3410 99 3391 102 3373 102C3340 102 3330 82 3330 48C3330 -32 3438 -104 3517 -104C3631 -104 3702 -19 3702 73C3702 188 3625 270 3546 336C3503 372 3420 420 3420 448Z M3947 363C3937 382 3931 398 3931 411C3931 436 3950 450 3979 460L3993 464C4083 493 4174 522 4265 545C4302 554 4339 565 4339 601C4339 640 4285 686 4243 686C4223 686 4199 681 4181 675C4065 638 3949 596 3834 556C3786 539 3763 504 3763 459C3763 412 3801 346 3808 281C3820 175 3826 68 3838 -39C3845 -107 3876 -138 3925 -138C3933 -138 3942 -137 3950 -135C4059 -117 4169 -101 4278 -81C4343 -70 4402 -55 4402 6C4402 26 4356 66 4325 66C4314 66 4297 60 4282 58C4180 46 4078 35 3968 23L3946 222C4037 257 4145 279 4246 300L4277 307C4319 316 4350 326 4350 375C4350 423 4310 440 4270 440C4177 440 4059 395 3947 363Z M5175 179 5166 211C5133 328 5093 448 5033 566C5017 598 4989 613 4961 613C4922 613 4896 584 4896 548C4896 502 4951 434 4977 370C5019 245 5073 -54 5175 -54C5206 -54 5254 -16 5271 18C5293 70 5301 130 5316 185C5330 240 5342 296 5362 377C5453 204 5500 89 5614 -2C5641 -23 5668 -34 5691 -34C5755 -34 5821 40 5821 139C5821 281 5820 423 5816 565C5815 607 5796 640 5753 640C5697 640 5688 602 5688 560C5688 483 5697 406 5697 330C5697 261 5693 193 5690 105C5657 134 5637 146 5627 163C5591 225 5558 290 5521 354L5509 374C5468 446 5417 535 5350 535C5247 535 5213 366 5185 228Z M6064 363C6054 382 6048 398 6048 411C6048 436 6067 450 6096 460L6110 464C6200 493 6291 522 6382 545C6419 554 6456 565 6456 601C6456 640 6402 686 6360 686C6340 686 6316 681 6298 675C6182 638 6066 596 5951 556C5903 539 5880 504 5880 459C5880 412 5918 346 5925 281C5937 175 5943 68 5955 -39C5962 -107 5993 -138 6042 -138C6050 -138 6059 -137 6067 -135C6176 -117 6286 -101 6395 -81C6460 -70 6519 -55 6519 6C6519 26 6473 66 6442 66C6431 66 6414 60 6399 58C6297 46 6195 35 6085 23L6063 222C6154 257 6262 279 6363 300L6394 307C6436 316 6467 326 6467 375C6467 423 6427 440 6387 440C6294 440 6176 395 6064 363Z M7055 131C7074 -5 7148 -81 7241 -81C7334 -81 7446 -14 7539 42L7559 54C7593 74 7609 101 7609 127C7609 165 7572 188 7552 188C7504 188 7329 54 7255 54C7149 54 7169 429 7162 592C7160 637 7145 677 7088 677C7046 677 7017 637 7017 573C7017 491 7053 206 7055 131Z M7847 363C7837 382 7831 398 7831 411C7831 436 7850 450 7879 460L7893 464C7983 493 8074 522 8165 545C8202 554 8239 565 8239 601C8239 640 8185 686 8143 686C8123 686 8099 681 8081 675C7965 638 7849 596 7734 556C7686 539 7663 504 7663 459C7663 412 7701 346 7708 281C7720 175 7726 68 7738 -39C7745 -107 7776 -138 7825 -138C7833 -138 7842 -137 7850 -135C7959 -117 8069 -101 8178 -81C8243 -70 8302 -55 8302 6C8302 26 8256 66 8225 66C8214 66 8197 60 8182 58C8080 46 7978 35 7868 23L7846 222C7937 257 8045 279 8146 300L8177 307C8219 316 8250 326 8250 375C8250 423 8210 440 8170 440C8077 440 7959 395 7847 363Z M8715 165C8756 61 8807 -116 8885 -116C8925 -116 8955 -76 8955 -48C8955 -34 8949 -17 8939 1C8906 61 8883 125 8856 185C8886 216 8918 256 8918 280C8918 317 8844 335 8799 361C8753 470 8691 658 8613 658C8585 658 8551 637 8507 598C8467 562 8427 535 8427 483C8427 479 8430 475 8431 471C8443 448 8447 429 8447 408C8447 374 8435 340 8427 307C8404 216 8379 127 8361 37C8358 25 8356 15 8356 5C8356 -44 8384 -71 8426 -71C8473 -71 8492 -42 8498 4C8504 45 8518 85 8529 133ZM8670 297 8561 272 8598 415 8620 417Z M9445 151C9562 253 9618 301 9662 401C9672 425 9676 448 9676 470C9676 550 9615 608 9525 608C9380 608 9290 509 9194 403L9175 382C9149 458 9133 553 9073 553C9040 553 9010 511 9010 475C9025 318 9048 163 9068 6C9072 -27 9102 -72 9136 -72C9192 -72 9207 -10 9217 35L9220 48L9235 45C9375 18 9487 -3 9642 -3C9682 -3 9720 -11 9760 -11C9784 3 9796 25 9796 48C9796 77 9779 106 9747 123ZM9250 222C9317 345 9387 435 9515 467C9515 370 9416 275 9250 222Z M10042 264C10148 134 10289 -85 10416 -85C10573 -85 10584 199 10584 442V576C10584 609 10551 665 10518 665C10455 665 10449 573 10447 538C10439 365 10442 245 10411 45C10247 212 10142 352 10011 516C9991 540 9946 556 9910 556C9864 556 9847 523 9847 502C9847 463 9879 397 9879 333V300C9879 245 9878 190 9878 134C9878 55 9885 -127 9979 -127C10027 -127 10059 -88 10059 -56C10059 -42 10055 -27 10046 -12C10020 25 10012 63 10012 103C10012 153 10027 204 10036 258Z"/>
  <path fill="#63213f" transform="translate(100.0 340.7) scale(0.095000 -0.095000)" d="M370 188C420 105 475 -54 535 -54C579 -54 598 -17 598 8C598 29 588 51 576 77C576 78 575 79 415 415L363 525C332 590 285 653 230 653C158 653 126 559 108 475C84 361 60 245 35 131C28 99 23 73 23 51C23 9 42 -8 83 -8C184 -8 139 145 248 162C283 167 318 178 365 190ZM253 392 258 385C278 355 292 340 292 329C292 313 273 307 233 290Z M1011 165C1052 61 1103 -116 1181 -116C1221 -116 1251 -76 1251 -48C1251 -34 1245 -17 1235 1C1202 61 1179 125 1152 185C1182 216 1214 256 1214 280C1214 317 1140 335 1095 361C1049 470 987 658 909 658C881 658 847 637 803 598C763 562 723 535 723 483C723 479 726 475 727 471C739 448 743 429 743 408C743 374 731 340 723 307C700 216 675 127 657 37C654 25 652 15 652 5C652 -44 680 -71 722 -71C769 -71 788 -42 794 4C800 45 814 85 825 133ZM966 297 857 272 894 415 916 417Z M1934 345C1923 397 1915 440 1915 467C1915 508 1931 519 1996 543C2048 562 2133 581 2186 589C2227 595 2260 605 2260 652C2260 709 2219 723 2164 723C2065 723 1984 658 1890 636C1815 618 1742 537 1742 474C1742 361 1813 38 1818 -30C1824 -101 1838 -129 1887 -129C1903 -129 1920 -128 1943 -123C2056 -97 2170 -67 2283 -38C2332 -25 2371 -8 2371 34C2371 78 2343 99 2309 99C2292 99 2253 90 2224 83C2127 58 2043 35 1949 9L1931 198C2048 245 2136 285 2240 321C2286 337 2340 346 2340 397C2340 440 2306 459 2275 459C2190 459 2049 386 1934 340Z M2614 363C2604 382 2598 398 2598 411C2598 436 2617 450 2646 460L2660 464C2750 493 2841 522 2932 545C2969 554 3006 565 3006 601C3006 640 2952 686 2910 686C2890 686 2866 681 2848 675C2732 638 2616 596 2501 556C2453 539 2430 504 2430 459C2430 412 2468 346 2475 281C2487 175 2493 68 2505 -39C2512 -107 2543 -138 2592 -138C2600 -138 2609 -137 2617 -135C2726 -117 2836 -101 2945 -81C3010 -70 3069 -55 3069 6C3069 26 3023 66 2992 66C2981 66 2964 60 2949 58C2847 46 2745 35 2635 23L2613 222C2704 257 2812 279 2913 300L2944 307C2986 316 3017 326 3017 375C3017 423 2977 440 2937 440C2844 440 2726 395 2614 363Z M4147 -37C4168 -34 4185 -5 4185 25C4185 60 4167 98 4118 123L3871 222L3879 232C3956 328 4040 434 4040 530C4040 600 3984 660 3915 660C3845 660 3773 582 3706 505L3702 518C3684 583 3671 632 3618 632C3600 632 3559 584 3559 555C3559 545 3563 533 3564 524C3586 345 3603 167 3625 -12C3629 -48 3652 -70 3692 -70C3748 -70 3756 -20 3756 33C3756 57 3754 82 3754 111C3790 100 3816 90 3845 82C3947 54 4000 14 4099 -28ZM3862 493 3882 483C3876 442 3847 412 3802 388Z M4676 151C4793 253 4849 301 4893 401C4903 425 4907 448 4907 470C4907 550 4846 608 4756 608C4611 608 4521 509 4425 403L4406 382C4380 458 4364 553 4304 553C4271 553 4241 511 4241 475C4256 318 4279 163 4299 6C4303 -27 4333 -72 4367 -72C4423 -72 4438 -10 4448 35L4451 48L4466 45C4606 18 4718 -3 4873 -3C4913 -3 4951 -11 4991 -11C5015 3 5027 25 5027 48C5027 77 5010 106 4978 123ZM4481 222C4548 345 4618 435 4746 467C4746 370 4647 275 4481 222Z"/>
  <path fill="#0f686b" transform="translate(100.0 460.5) scale(0.090000 -0.090000)" d="M67 131C86 -5 160 -81 253 -81C346 -81 458 -14 551 42L571 54C605 74 621 101 621 127C621 165 584 188 564 188C516 188 341 54 267 54C161 54 181 429 174 592C172 637 157 677 100 677C58 677 29 637 29 573C29 491 65 206 67 131Z M859 363C849 382 843 398 843 411C843 436 862 450 891 460L905 464C995 493 1086 522 1177 545C1214 554 1251 565 1251 601C1251 640 1197 686 1155 686C1135 686 1111 681 1093 675C977 638 861 596 746 556C698 539 675 504 675 459C675 412 713 346 720 281C732 175 738 68 750 -39C757 -107 788 -138 837 -138C845 -138 854 -137 862 -135C971 -117 1081 -101 1190 -81C1255 -70 1314 -55 1314 6C1314 26 1268 66 1237 66C1226 66 1209 60 1194 58C1092 46 990 35 880 23L858 222C949 257 1057 279 1158 300L1189 307C1231 316 1262 326 1262 375C1262 423 1222 440 1182 440C1089 440 971 395 859 363Z M1727 165C1768 61 1819 -116 1897 -116C1937 -116 1967 -76 1967 -48C1967 -34 1961 -17 1951 1C1918 61 1895 125 1868 185C1898 216 1930 256 1930 280C1930 317 1856 335 1811 361C1765 470 1703 658 1625 658C1597 658 1563 637 1519 598C1479 562 1439 535 1439 483C1439 479 1442 475 1443 471C1455 448 1459 429 1459 408C1459 374 1447 340 1439 307C1416 216 1391 127 1373 37C1370 25 1368 15 1368 5C1368 -44 1396 -71 1438 -71C1485 -71 1504 -42 1510 4C1516 45 1530 85 1541 133ZM1682 297 1573 272 1610 415 1632 417Z M2457 151C2574 253 2630 301 2674 401C2684 425 2688 448 2688 470C2688 550 2627 608 2537 608C2392 608 2302 509 2206 403L2187 382C2161 458 2145 553 2085 553C2052 553 2022 511 2022 475C2037 318 2060 163 2080 6C2084 -27 2114 -72 2148 -72C2204 -72 2219 -10 2229 35L2232 48L2247 45C2387 18 2499 -3 2654 -3C2694 -3 2732 -11 2772 -11C2796 3 2808 25 2808 48C2808 77 2791 106 2759 123ZM2262 222C2329 345 2399 435 2527 467C2527 370 2428 275 2262 222Z M3054 264C3160 134 3301 -85 3428 -85C3585 -85 3596 199 3596 442V576C3596 609 3563 665 3530 665C3467 665 3461 573 3459 538C3451 365 3454 245 3423 45C3259 212 3154 352 3023 516C3003 540 2958 556 2922 556C2876 556 2859 523 2859 502C2859 463 2891 397 2891 333V300C2891 245 2890 190 2890 134C2890 55 2897 -127 2991 -127C3039 -127 3071 -88 3071 -56C3071 -42 3067 -27 3058 -12C3032 25 3024 63 3024 103C3024 153 3039 204 3048 258Z"/>
  <path fill="#4c1930" transform="translate(100.0 713.7) scale(0.057000 -0.057000)" d="M382 165C423 61 474 -116 552 -116C592 -116 622 -76 622 -48C622 -34 616 -17 606 1C573 61 550 125 523 185C553 216 585 256 585 280C585 317 511 335 466 361C420 470 358 658 280 658C252 658 218 637 174 598C134 562 94 535 94 483C94 479 97 475 98 471C110 448 114 429 114 408C114 374 102 340 94 307C71 216 46 127 28 37C25 25 23 15 23 5C23 -44 51 -71 93 -71C140 -71 159 -42 165 4C171 45 185 85 196 133ZM337 297 228 272 265 415 287 417Z M1601 335C1634 386 1662 443 1662 495C1662 605 1564 647 1424 647C1305 647 1115 595 1115 499C1115 450 1167 380 1184 309C1214 127 1327 -101 1462 -101C1603 -101 1744 15 1744 126C1744 208 1691 245 1601 335ZM1525 495C1484 400 1417 355 1323 317L1292 485C1328 496 1388 505 1427 505C1453 505 1498 500 1525 495ZM1459 34 1374 165C1403 193 1437 203 1469 203C1510 203 1594 188 1594 131C1594 69 1512 54 1459 34Z M2742 175C2675 143 2603 113 2534 113C2464 113 2372 162 2372 248C2372 287 2387 327 2402 365C2487 378 2541 370 2541 429C2541 496 2467 564 2414 564C2317 564 2237 335 2237 222C2237 75 2369 -25 2549 -25C2614 -25 2794 6 2794 86C2794 122 2773 160 2742 175Z M3838 255C3802 450 3676 523 3520 556C3490 562 3457 562 3430 575C3389 593 3364 605 3345 605C3313 605 3291 528 3291 398C3291 265 3324 134 3367 6C3390 -45 3464 -62 3517 -62C3673 -62 3835 75 3838 255ZM3430 418C3445 420 3457 420 3470 420C3575 420 3700 333 3700 238C3700 175 3627 82 3526 82C3514 82 3500 82 3484 83C3452 175 3430 327 3430 418Z M4517 363C4507 382 4501 398 4501 411C4501 436 4520 450 4549 460L4563 464C4653 493 4744 522 4835 545C4872 554 4909 565 4909 601C4909 640 4855 686 4813 686C4793 686 4769 681 4751 675C4635 638 4519 596 4404 556C4356 539 4333 504 4333 459C4333 412 4371 346 4378 281C4390 175 4396 68 4408 -39C4415 -107 4446 -138 4495 -138C4503 -138 4512 -137 4520 -135C4629 -117 4739 -101 4848 -81C4913 -70 4972 -55 4972 6C4972 26 4926 66 4895 66C4884 66 4867 60 4852 58C4750 46 4648 35 4538 23L4516 222C4607 257 4715 279 4816 300L4847 307C4889 316 4920 326 4920 375C4920 423 4880 440 4840 440C4747 440 4629 395 4517 363Z M5931 222C5969 227 5991 265 5991 301C5991 324 5983 346 5965 358C5796 357 5798 320 5625 296C5612 344 5604 377 5604 400C5604 444 5634 460 5717 482C5776 498 5871 513 5931 523C5974 530 6006 544 6006 592C6006 638 5969 660 5934 660C5928 660 5923 660 5918 658C5833 647 5751 625 5669 608C5639 601 5611 587 5581 587C5489 586 5466 579 5466 513C5466 335 5495 154 5510 -23C5514 -74 5555 -116 5595 -116C5624 -116 5651 -62 5651 -34C5651 -14 5643 8 5640 29C5633 69 5632 110 5628 154C5912 219 5891 209 5928 219Z M6650 349C6652 358 6652 375 6652 378C6656 434 6659 459 6707 474C6738 484 6752 499 6752 524C6752 572 6705 618 6659 618C6552 618 6500 394 6500 278C6500 133 6563 -34 6747 -34C6840 -34 6970 41 6970 111C6970 165 6940 173 6909 173C6847 173 6809 102 6744 102C6705 102 6678 130 6656 193C6753 256 6845 295 6976 295C6987 242 6998 192 7010 143L7014 127C7033 52 7034 -80 7112 -80C7160 -80 7181 -44 7181 -15C7181 -5 7180 3 7177 13C7124 261 7112 434 6951 434C6875 434 6769 392 6650 349Z M8240 216C8248 168 8253 127 8260 86L8262 75C8272 14 8283 -60 8345 -60C8367 -60 8408 -12 8408 14C8408 85 8380 160 8380 232C8380 264 8385 293 8404 324C8405 327 8407 333 8407 335C8407 341 8404 350 8400 355C8345 408 8336 475 8328 542C8328 546 8327 549 8327 553C8325 581 8280 608 8259 608C8218 608 8206 570 8206 530C8206 505 8210 483 8210 460V350L7828 256C7820 377 7828 533 7758 533C7721 533 7673 480 7673 440C7673 429 7675 417 7676 405C7695 285 7715 165 7736 43C7749 -12 7775 -76 7824 -76C7872 -76 7888 -42 7888 -11C7888 31 7872 80 7860 133Z M8984 588C9005 585 9024 582 9039 582C9085 582 9102 598 9102 635C9102 684 9047 732 8987 732C8937 732 8902 700 8902 650C8902 598 8934 588 8978 588ZM9028 167C9028 60 9056 -190 9147 -190C9197 -190 9211 -149 9211 -127C9211 -104 9204 -80 9198 -56C9190 46 9181 148 9172 250C9172 287 9169 353 9121 353C9087 353 9065 318 9041 292C9028 279 9028 197 9028 167Z M9865 90C9833 106 9811 126 9788 126C9741 126 9707 94 9707 40C9707 -48 9761 -124 9829 -124C9911 -124 10007 -5 10007 108C10007 117 10005 128 10003 136C9985 292 9954 445 9928 598C9923 642 9882 670 9843 670C9820 670 9797 640 9797 608C9797 585 9805 562 9810 539C9838 411 9866 283 9866 147C9866 128 9866 108 9865 90Z M11193 156C11180 171 11151 173 11128 178C10994 208 10856 225 10729 280C10788 363 10856 402 10933 430C10967 443 11000 460 11000 493C11000 540 10963 560 10937 560C10852 560 10717 462 10646 415C10620 499 10618 556 10540 556C10516 553 10495 510 10495 493C10495 457 10515 239 10531 75C10545 17 10561 -16 10596 -16C10635 -16 10685 23 10685 61C10685 85 10677 110 10677 136L11088 46C11107 42 11128 37 11148 37C11180 37 11221 62 11221 89C11221 111 11205 140 11188 159Z M12011 -59C12092 -34 12194 6 12299 45C12323 54 12343 78 12343 105C12343 150 12307 170 12279 170C12241 170 12194 146 12154 131C12100 111 12026 78 11979 78C11901 78 11888 197 11878 288L11875 312C11862 411 11866 601 11781 601C11731 601 11716 570 11716 539C11716 528 11717 519 11719 508C11736 363 11734 216 11780 80C11812 -16 11882 -59 12011 -59Z M13674 480C13687 446 13706 392 13714 355C13732 273 13734 29 13841 29C13882 29 13926 66 13926 105C13926 118 13921 131 13911 145C13862 198 13869 265 13856 327C13832 442 13829 622 13652 622C13514 622 13435 470 13371 373C13309 463 13262 565 13181 565C13116 565 13065 490 13017 412C12985 507 12972 613 12898 613C12855 613 12830 582 12830 525C12830 463 12875 386 12889 317C12909 215 12924 111 12940 9C12947 -34 12954 -81 13012 -81C13108 -81 13094 85 13116 183C13131 250 13132 324 13193 406L13267 162C13288 93 13298 -3 13371 -3C13397 -3 13423 13 13439 45C13452 71 13449 106 13457 134C13480 213 13502 296 13536 373C13556 420 13589 466 13674 480Z"/>
  <path fill="#4c1930" transform="translate(100.0 785.5) scale(0.057000 -0.057000)" d="M218 264C324 134 465 -85 592 -85C749 -85 760 199 760 442V576C760 609 727 665 694 665C631 665 625 573 623 538C615 365 618 245 587 45C423 212 318 352 187 516C167 540 122 556 86 556C40 556 23 523 23 502C23 463 55 397 55 333V300C55 245 54 190 54 134C54 55 61 -127 155 -127C203 -127 235 -88 235 -56C235 -42 231 -27 222 -12C196 25 188 63 188 103C188 153 203 204 212 258Z M1252 255C1256 150 1250 103 1275 66C1309 -28 1380 -81 1465 -81C1499 -81 1534 -72 1571 -54C1714 17 1783 146 1783 278C1783 434 1666 629 1505 629C1353 629 1276 496 1252 255ZM1474 491C1567 451 1639 412 1639 285C1639 188 1568 58 1463 58C1418 58 1377 122 1377 222C1377 313 1411 417 1468 488Z M2538 42C2682 136 2761 230 2761 375C2761 537 2651 649 2525 649C2406 649 2298 562 2275 457V450C2275 385 2392 21 2403 -65C2405 -82 2449 -105 2475 -105C2491 -105 2519 -77 2528 -56C2538 -28 2533 4 2538 42ZM2500 193 2453 483C2489 495 2517 500 2538 500C2591 500 2625 439 2625 377C2625 310 2583 245 2500 193Z M3880 23C3937 126 3968 195 3968 293C3968 397 3928 499 3848 582C3792 640 3732 700 3655 700C3624 700 3588 690 3550 665C3547 662 3543 662 3538 662C3533 662 3529 662 3527 661C3442 649 3386 601 3347 532C3298 445 3255 297 3255 196C3255 -20 3360 -161 3542 -161C3622 -161 3690 -122 3763 -87C3802 -107 3846 -142 3885 -142C3911 -142 3956 -121 3956 -93C3956 -45 3933 -25 3877 20ZM3518 527C3565 487 3591 467 3612 467C3633 467 3650 484 3684 518L3693 527C3781 460 3826 383 3826 301C3826 255 3812 205 3781 154C3735 212 3688 297 3636 297C3599 297 3576 261 3576 241C3576 195 3645 113 3687 49C3645 1 3600 -27 3548 -27C3423 -27 3393 77 3393 168C3393 298 3414 423 3515 524Z M4900 151C5017 253 5073 301 5117 401C5127 425 5131 448 5131 470C5131 550 5070 608 4980 608C4835 608 4745 509 4649 403L4630 382C4604 458 4588 553 4528 553C4495 553 4465 511 4465 475C4480 318 4503 163 4523 6C4527 -27 4557 -72 4591 -72C4647 -72 4662 -10 4672 35L4675 48L4690 45C4830 18 4942 -3 5097 -3C5137 -3 5175 -11 5215 -11C5239 3 5251 25 5251 48C5251 77 5234 106 5202 123ZM4705 222C4772 345 4842 435 4970 467C4970 370 4871 275 4705 222Z M5872 448C5872 491 5953 516 5977 516C6002 516 6047 466 6098 466C6125 466 6147 523 6147 550C6147 621 6057 652 5992 652C5870 652 5740 564 5740 454C5740 374 5792 330 5888 247L5920 219C5961 187 6017 127 6017 86C6017 61 5987 35 5967 35C5929 35 5897 98 5879 98C5862 99 5843 102 5825 102C5792 102 5782 82 5782 48C5782 -32 5890 -104 5969 -104C6083 -104 6154 -19 6154 73C6154 188 6077 270 5998 336C5955 372 5872 420 5872 448Z M6932 392C6943 248 6955 103 6970 -42C6977 -107 7011 -144 7073 -144C7093 -139 7110 -90 7110 -70C7110 -44 7102 -17 7099 8C7084 145 7062 283 7062 420C7062 524 7108 513 7282 553C7322 562 7359 576 7359 618C7359 675 7319 687 7281 687C7267 687 7250 687 7235 684C7062 636 6886 590 6713 542C6680 533 6651 513 6651 480C6651 430 6686 412 6715 412C6770 412 6850 442 6929 462Z M8130 23C8085 23 8048 93 8036 140C8013 232 7997 327 7980 420C7973 459 7986 550 7919 550C7851 550 7851 459 7851 390C7851 233 7881 57 8001 -63C8038 -100 8082 -116 8122 -116C8288 -116 8340 127 8340 332C8340 432 8334 551 8264 630C8249 647 8231 660 8211 660C8179 660 8156 624 8156 588C8156 581 8158 570 8159 562C8189 491 8200 420 8200 349C8200 272 8189 196 8176 120C8170 86 8165 23 8130 23Z M9120 60 9104 88C9054 208 9020 324 8981 443C8963 497 8945 537 8877 537C8849 531 8835 482 8835 458C8835 446 8838 429 8842 420L8850 394C8884 281 8918 168 8962 61C8993 -17 9067 -101 9127 -101C9187 -101 9239 -45 9255 37C9288 210 9319 382 9351 555C9352 565 9353 575 9353 585C9353 616 9339 649 9286 649C9209 649 9197 496 9181 406Z M10150 198 10139 220C10078 341 10044 408 9984 505C9968 531 9945 552 9916 552C9884 552 9852 522 9852 495C9852 477 9863 455 9875 437C9965 303 10011 153 10054 1C10071 -76 10104 -119 10146 -119C10211 -119 10239 -22 10261 55C10263 60 10265 66 10266 71C10286 139 10303 207 10319 273C10354 233 10368 193 10386 156C10439 49 10499 -101 10595 -101C10750 -101 10779 373 10779 587C10779 625 10765 660 10714 660C10631 660 10645 523 10636 440C10623 327 10606 215 10592 102L10587 64C10564 114 10521 199 10498 250C10456 343 10418 474 10328 474C10233 474 10195 344 10156 210L10151 193Z M11523 252C11469 153 11404 73 11336 -17C11325 -34 11316 -51 11316 -67C11316 -90 11335 -113 11376 -113C11448 -113 11475 -62 11511 -16C11548 31 11583 80 11622 128C11687 54 11750 -39 11807 -39C11837 -39 11872 -5 11872 23C11872 71 11761 184 11696 261C11742 349 11780 432 11828 508C11850 543 11863 570 11863 592C11863 622 11832 657 11793 657C11730 657 11696 560 11654 480C11639 451 11620 423 11598 385C11520 465 11467 527 11376 579C11364 585 11353 588 11342 588C11310 588 11270 553 11270 508C11270 483 11286 462 11315 452C11415 418 11456 329 11523 252Z M12726 155C12719 105 12706 29 12706 -42C12706 -80 12721 -117 12773 -117C12850 -117 12849 23 12861 111C12875 284 12892 439 12895 593C12895 621 12864 657 12846 657C12710 657 12794 428 12728 324C12661 382 12603 434 12547 489C12507 527 12476 608 12426 608C12388 608 12364 573 12364 550C12364 448 12584 283 12726 155Z M13796 443C13796 395 13770 355 13751 316C13706 225 13618 103 13618 18C13618 -67 13686 -92 13796 -92C13937 -92 14154 -30 14154 58C14154 94 14132 114 14103 114C14049 114 13934 51 13830 51C13810 51 13791 51 13770 57C13836 182 13895 278 13929 398C13934 420 13935 440 13935 460C13935 568 13858 630 13725 630C13587 630 13390 550 13390 474C13390 439 13413 417 13440 417C13485 417 13601 491 13697 491C13748 491 13796 490 13796 443Z"/>
  <path fill="#4c1930" transform="translate(161.9 890.7) scale(0.068000 -0.068000)" d="M448 114C448 182 447 243 447 304C447 374 448 430 448 488V531C448 634 443 748 358 748C278 748 156 611 74 532C61 519 47 501 47 486C47 446 50 405 90 405C159 405 202 486 251 529C267 543 291 551 319 567C316 391 314 273 309 100C258 100 209 99 162 99C135 99 108 100 81 100C46 100 14 89 14 40C14 -20 93 -27 148 -27C273 -27 401 -17 526 -9C599 -4 716 3 716 74C716 122 680 135 648 135C587 135 523 123 448 114Z M1488 592C1501 592 1504 589 1504 582C1504 551 1434 457 1408 408C1352 303 1234 160 1234 75C1234 14 1282 -16 1378 -16C1463 -16 1549 -1 1633 11C1671 20 1716 54 1716 96C1716 128 1684 148 1656 148C1633 148 1609 135 1586 133C1526 123 1465 115 1383 105C1412 156 1427 188 1443 219C1511 352 1630 502 1630 631C1630 701 1582 751 1515 751C1389 751 1279 657 1217 557C1208 543 1204 527 1204 513C1204 475 1230 448 1265 448C1290 448 1308 466 1322 490C1356 549 1437 592 1488 592Z M2469 597C2432 540 2408 498 2377 459C2345 412 2283 383 2283 319C2283 287 2332 266 2367 266C2401 266 2437 277 2471 277C2535 277 2607 226 2607 140C2607 113 2598 87 2578 66C2545 31 2468 -23 2437 -23C2398 -23 2379 17 2330 17C2287 17 2280 -16 2280 -47C2280 -114 2355 -155 2426 -155C2602 -155 2739 11 2739 144C2739 239 2685 331 2582 385C2564 394 2544 403 2525 413C2552 480 2595 546 2595 610C2595 680 2543 728 2462 728C2354 728 2205 649 2205 559C2205 517 2230 479 2261 479C2282 479 2300 495 2312 518C2340 573 2388 592 2469 597Z M3738 206C3744 165 3750 130 3753 95C3753 94 3753 92 3754 93C3754 93 3755 88 3755 52C3755 -14 3761 -78 3825 -78C3892 -78 3892 -12 3892 43V52C3892 103 3880 113 3880 164C3880 204 3867 356 3867 396C3867 522 3869 527 3869 657C3869 701 3844 739 3795 739C3755 739 3735 710 3730 673C3726 592 3723 508 3723 428C3723 402 3724 375 3724 347C3692 344 3661 342 3631 342C3562 342 3495 350 3420 364C3495 421 3558 461 3611 511C3645 543 3691 608 3691 649C3691 680 3660 713 3614 713C3587 713 3566 695 3562 665C3555 615 3518 592 3481 568C3417 526 3351 486 3285 447C3249 426 3217 402 3217 358C3217 299 3260 269 3307 257C3373 240 3443 227 3512 219C3585 211 3659 210 3738 206Z M4598 516C4598 568 4627 572 4658 574C4741 581 4869 569 4869 647C4869 686 4848 712 4810 712C4806 712 4802 712 4798 711C4686 697 4573 683 4461 660C4433 654 4411 631 4411 607C4411 596 4415 585 4425 576C4452 552 4460 528 4460 504C4460 442 4415 381 4415 320C4415 295 4440 255 4482 255C4548 255 4582 376 4663 376C4730 376 4786 284 4786 223C4786 137 4626 74 4525 66C4506 67 4491 137 4454 137C4415 137 4385 80 4385 44C4385 -22 4436 -70 4509 -70C4515 -70 4521 -70 4528 -69C4693 -50 4921 50 4921 223C4921 249 4916 277 4905 306C4853 438 4763 516 4612 516Z M5912 77C5958 112 6008 143 6042 184C6085 236 6153 329 6153 388C6153 448 6085 516 6020 516C5965 516 5884 456 5847 394C5796 308 5774 146 5699 146C5689 146 5677 148 5665 153C5585 182 5560 255 5560 337C5560 429 5579 519 5579 611C5579 646 5566 678 5531 678C5507 678 5460 651 5456 618C5444 527 5426 435 5426 344C5426 146 5514 24 5681 18H5690C5734 16 5770 15 5810 -19C5825 -32 5840 -38 5854 -38C5884 -38 5913 -3 5913 51C5913 60 5912 69 5912 77ZM5910 210C5900 210 5897 224 5897 234C5897 288 5966 398 6011 398C6017 398 6026 394 6026 386C6026 363 6021 337 6005 312C5988 286 5934 210 5910 210Z M7229 376C7200 599 7188 698 7068 698C7040 698 7005 692 6966 679C6875 648 6784 617 6694 589C6661 578 6636 561 6636 527C6636 481 6667 463 6702 463C6743 463 6785 476 6824 489C6900 513 6974 540 7054 568C7079 521 7087 477 7087 434C7087 409 7084 384 7081 359C7010 338 6944 322 6877 299C6845 288 6816 264 6816 231C6816 187 6848 170 6871 170C6917 170 6977 214 7044 214C7062 214 7082 211 7102 206C7102 169 7101 132 7101 96V89C7101 43 7101 -23 7149 -23C7198 -23 7234 32 7234 76C7234 133 7232 183 7232 242C7284 248 7320 253 7356 259C7439 271 7575 278 7575 356C7575 405 7544 418 7519 418C7505 418 7490 412 7476 412C7397 397 7316 389 7229 376Z M8347 322C8375 345 8392 364 8412 377C8485 424 8592 472 8592 506C8592 524 8577 546 8549 580C8537 594 8536 614 8525 627C8506 648 8487 679 8463 681C8416 688 8369 694 8322 694C8182 694 8034 634 8034 512C8034 432 8101 366 8156 299C8140 236 8122 190 8122 117C8122 -21 8193 -104 8320 -104C8406 -104 8503 -45 8503 58C8503 149 8421 227 8347 322ZM8240 410C8216 440 8193 469 8167 503L8160 511C8222 556 8282 570 8355 570C8381 570 8409 568 8440 565ZM8281 195C8316 148 8344 105 8370 69C8352 39 8334 28 8316 28C8282 28 8251 62 8251 98C8251 123 8261 155 8281 195Z M9465 233C9464 196 9464 161 9464 127V28C9464 -128 9464 -188 9528 -188C9573 -188 9594 -156 9596 -72C9601 109 9607 291 9607 473C9607 592 9505 693 9383 693C9222 693 9110 505 9077 356C9073 338 9071 320 9071 303C9071 222 9138 131 9240 131C9313 131 9369 176 9465 233ZM9468 522C9473 510 9475 497 9475 485C9475 405 9381 336 9307 291C9289 280 9266 268 9247 268C9217 268 9212 296 9212 329C9212 372 9315 560 9394 562C9419 562 9455 558 9468 522Z M10108 347C10104 320 10102 294 10102 270C10102 171 10136 97 10184 32C10248 -56 10346 -103 10449 -103C10658 -103 10799 68 10799 225C10799 420 10645 576 10491 669C10439 700 10392 716 10351 716C10285 716 10233 676 10191 592C10146 504 10117 404 10108 347ZM10238 289C10239 340 10255 393 10269 445C10289 515 10334 552 10388 552C10498 552 10665 369 10665 225C10665 128 10583 28 10446 28C10358 28 10283 87 10257 187C10248 220 10238 251 10238 289Z"/>
</svg>
