<svg xmlns="http://www.w3.org/2000/svg" xml:space="preserve" width="120" height="120" viewBox="0 0 120 120"><g fill="#dbc7bd" fill-rule="evenodd" clip-rule="evenodd"><circle cx="52.068" cy="47.953" r=".35"/><circle cx="52.068" cy="43.873" r=".881"/><circle cx="52.068" cy="39.793" r="1.1"/><circle cx="52.068" cy="35.735" r="1.3"/><circle cx="52.067" cy="31.654" r="1.5"/><circle cx="52.068" cy="27.577" r="1.65"/><circle cx="52.067" cy="23.521" r="1.75"/><circle cx="52.068" cy="19.44" r="1.55"/><circle cx="52.068" cy="15.361" r="1.4"/><circle cx="52.068" cy="11.28" r="1.2"/><circle cx="52.068" cy="7.231" r=".95"/><circle cx="52.027" cy="3.143" r=".56"/><circle cx="67.933" cy="47.953" r=".35"/><circle cx="67.933" cy="43.873" r=".881"/><circle cx="67.933" cy="39.793" r="1.1"/><circle cx="67.933" cy="35.735" r="1.3"/><circle cx="67.933" cy="31.654" r="1.5"/><circle cx="67.933" cy="27.577" r="1.65"/><circle cx="67.933" cy="23.521" r="1.75"/><circle cx="67.933" cy="19.44" r="1.55"/><circle cx="67.933" cy="15.361" r="1.4"/><circle cx="67.933" cy="11.28" r="1.2"/><circle cx="67.933" cy="7.231" r=".95"/><circle cx="67.892" cy="3.143" r=".56"/><circle cx="63.966" cy="47.953" r=".35"/><circle cx="63.966" cy="43.873" r=".881"/><circle cx="63.966" cy="39.793" r="1.1"/><circle cx="63.966" cy="35.735" r="1.3"/><circle cx="63.967" cy="31.654" r="1.5"/><circle cx="63.966" cy="27.577" r="1.65"/><circle cx="63.967" cy="23.521" r="1.75"/><circle cx="63.966" cy="19.44" r="1.55"/><circle cx="63.966" cy="15.361" r="1.4"/><circle cx="63.966" cy="11.28" r="1.2"/><circle cx="63.966" cy="7.231" r=".95"/><circle cx="63.926" cy="3.143" r=".56"/><circle cx="60" cy="47.953" r=".35"/><circle cx="60" cy="43.873" r=".881"/><circle cx="60" cy="39.793" r="1.1"/><circle cx="60" cy="35.735" r="1.3"/><circle cx="60" cy="31.654" r="1.5"/><circle cx="60" cy="27.577" r="1.65"/><circle cx="60" cy="23.521" r="1.75"/><circle cx="60" cy="19.44" r="1.55"/><circle cx="60" cy="15.361" r="1.4"/><circle cx="60" cy="11.28" r="1.2"/><circle cx="60" cy="7.231" r=".95"/><circle cx="59.959" cy="3.143" r=".56"/><circle cx="56.034" cy="47.953" r=".35"/><circle cx="56.034" cy="43.873" r=".881"/><circle cx="56.034" cy="39.793" r="1.1"/><circle cx="56.034" cy="35.735" r="1.3"/><circle cx="56.034" cy="31.654" r="1.5"/><circle cx="56.034" cy="27.577" r="1.65"/><circle cx="56.034" cy="23.521" r="1.75"/><circle cx="56.034" cy="19.44" r="1.55"/><circle cx="56.034" cy="15.361" r="1.4"/><circle cx="56.034" cy="11.28" r="1.2"/><circle cx="56.034" cy="7.231" r=".95"/><circle cx="55.994" cy="3.143" r=".56"/><circle cx="47.954" cy="67.932" r=".35"/><circle cx="43.873" cy="67.932" r=".881"/><circle cx="39.793" cy="67.932" r="1.1"/><circle cx="35.736" cy="67.932" r="1.3"/><circle cx="31.654" cy="67.932" r="1.5"/><circle cx="27.578" cy="67.932" r="1.65"/><circle cx="23.521" cy="67.932" r="1.75"/><circle cx="19.441" cy="67.932" r="1.55"/><circle cx="15.361" cy="67.932" r="1.4"/><circle cx="11.281" cy="67.932" r="1.2"/><circle cx="7.232" cy="67.932" r=".95"/><circle cx="3.144" cy="67.972" r=".56"/><circle cx="47.954" cy="52.067" r=".35"/><circle cx="43.873" cy="52.067" r=".881"/><circle cx="39.793" cy="52.067" r="1.1"/><circle cx="35.736" cy="52.067" r="1.3"/><circle cx="31.654" cy="52.067" r="1.5"/><circle cx="27.578" cy="52.067" r="1.65"/><circle cx="23.521" cy="52.067" r="1.75"/><circle cx="19.441" cy="52.067" r="1.55"/><circle cx="15.361" cy="52.067" r="1.4"/><circle cx="11.281" cy="52.067" r="1.2"/><circle cx="7.232" cy="52.067" r=".95"/><circle cx="3.144" cy="52.108" r=".56"/><circle cx="47.954" cy="56.034" r=".35"/><circle cx="43.873" cy="56.033" r=".881"/><circle cx="39.793" cy="56.034" r="1.1"/><circle cx="35.736" cy="56.033" r="1.3"/><circle cx="31.654" cy="56.033" r="1.5"/><circle cx="27.578" cy="56.034" r="1.65"/><circle cx="23.521" cy="56.033" r="1.75"/><circle cx="19.441" cy="56.033" r="1.55"/><circle cx="15.361" cy="56.034" r="1.4"/><circle cx="11.281" cy="56.033" r="1.2"/><circle cx="7.232" cy="56.033" r=".95"/><circle cx="3.144" cy="56.074" r=".56"/><circle cx="47.954" cy="60" r=".35"/><circle cx="43.873" cy="60" r=".881"/><circle cx="39.793" cy="60" r="1.1"/><circle cx="35.736" cy="60" r="1.3"/><circle cx="31.654" cy="59.999" r="1.5"/><circle cx="27.578" cy="60" r="1.65"/><circle cx="23.521" cy="60" r="1.75"/><circle cx="19.441" cy="60" r="1.55"/><circle cx="15.361" cy="60" r="1.4"/><circle cx="11.281" cy="60" r="1.2"/><circle cx="7.232" cy="60" r=".95"/><circle cx="3.144" cy="60.04" r=".56"/><circle cx="47.954" cy="63.966" r=".35"/><circle cx="43.873" cy="63.966" r=".881"/><circle cx="39.793" cy="63.966" r="1.1"/><circle cx="35.736" cy="63.966" r="1.3"/><circle cx="31.654" cy="63.966" r="1.5"/><circle cx="27.578" cy="63.966" r="1.65"/><circle cx="23.521" cy="63.966" r="1.75"/><circle cx="19.441" cy="63.966" r="1.55"/><circle cx="15.361" cy="63.966" r="1.4"/><circle cx="11.281" cy="63.966" r="1.2"/><circle cx="7.232" cy="63.966" r=".95"/><circle cx="3.144" cy="64.006" r=".56"/><circle cx="72.047" cy="52.067" r=".35"/><circle cx="76.127" cy="52.067" r=".881"/><circle cx="80.207" cy="52.067" r="1.1"/><circle cx="84.264" cy="52.067" r="1.3"/><circle cx="88.346" cy="52.067" r="1.5"/><circle cx="92.423" cy="52.067" r="1.65"/><circle cx="96.479" cy="52.067" r="1.75"/><circle cx="100.56" cy="52.067" r="1.55"/><circle cx="104.639" cy="52.067" r="1.4"/><circle cx="108.72" cy="52.067" r="1.2"/><circle cx="112.768" cy="52.067" r=".95"/><circle cx="116.857" cy="52.027" r=".56"/><circle cx="72.047" cy="67.932" r=".35"/><circle cx="76.127" cy="67.932" r=".881"/><circle cx="80.207" cy="67.932" r="1.1"/><circle cx="84.264" cy="67.932" r="1.3"/><circle cx="88.346" cy="67.933" r="1.5"/><circle cx="92.423" cy="67.932" r="1.65"/><circle cx="96.479" cy="67.932" r="1.75"/><circle cx="100.56" cy="67.932" r="1.55"/><circle cx="104.639" cy="67.932" r="1.4"/><circle cx="108.72" cy="67.932" r="1.2"/><circle cx="112.768" cy="67.932" r=".95"/><circle cx="116.857" cy="67.892" r=".56"/><circle cx="72.047" cy="63.966" r=".35"/><circle cx="76.127" cy="63.966" r=".881"/><circle cx="80.207" cy="63.966" r="1.1"/><circle cx="84.264" cy="63.966" r="1.3"/><circle cx="88.346" cy="63.966" r="1.5"/><circle cx="92.423" cy="63.966" r="1.65"/><circle cx="96.479" cy="63.966" r="1.75"/><circle cx="100.56" cy="63.966" r="1.55"/><circle cx="104.639" cy="63.966" r="1.4"/><circle cx="108.72" cy="63.966" r="1.2"/><circle cx="112.768" cy="63.966" r=".95"/><circle cx="116.857" cy="63.925" r=".56"/><circle cx="72.047" cy="60" r=".35"/><circle cx="76.127" cy="60" r=".881"/><circle cx="80.207" cy="60" r="1.1"/><circle cx="84.264" cy="60" r="1.3"/><circle cx="88.346" cy="60" r="1.5"/><circle cx="92.423" cy="60" r="1.65"/><circle cx="96.479" cy="60" r="1.75"/><circle cx="100.56" cy="60" r="1.55"/><circle cx="104.639" cy="60" r="1.4"/><circle cx="108.72" cy="60" r="1.2"/><circle cx="112.768" cy="60" r=".95"/><circle cx="116.857" cy="59.959" r=".56"/><circle cx="72.047" cy="56.034" r=".35"/><circle cx="76.127" cy="56.033" r=".881"/><circle cx="80.207" cy="56.034" r="1.1"/><circle cx="84.264" cy="56.033" r="1.3"/><circle cx="88.346" cy="56.033" r="1.5"/><circle cx="92.423" cy="56.034" r="1.65"/><circle cx="96.479" cy="56.033" r="1.75"/><circle cx="100.56" cy="56.033" r="1.55"/><circle cx="104.639" cy="56.034" r="1.4"/><circle cx="108.72" cy="56.033" r="1.2"/><circle cx="112.768" cy="56.033" r=".95"/><circle cx="116.857" cy="55.993" r=".56"/><circle cx="67.933" cy="72.046" r=".35"/><circle cx="67.933" cy="76.127" r=".881"/><circle cx="67.933" cy="80.206" r="1.1"/><circle cx="67.933" cy="84.264" r="1.3"/><circle cx="67.933" cy="88.346" r="1.5"/><circle cx="67.933" cy="92.422" r="1.65"/><circle cx="67.933" cy="96.479" r="1.75"/><circle cx="67.933" cy="100.559" r="1.55"/><circle cx="67.933" cy="104.639" r="1.4"/><circle cx="67.933" cy="108.719" r="1.2"/><circle cx="67.933" cy="112.768" r=".95"/><circle cx="67.973" cy="116.856" r=".56"/><circle cx="52.068" cy="72.046" r=".35"/><circle cx="52.068" cy="76.127" r=".881"/><circle cx="52.068" cy="80.206" r="1.1"/><circle cx="52.068" cy="84.264" r="1.3"/><circle cx="52.067" cy="88.346" r="1.5"/><circle cx="52.068" cy="92.422" r="1.65"/><circle cx="52.067" cy="96.479" r="1.75"/><circle cx="52.068" cy="100.559" r="1.55"/><circle cx="52.068" cy="104.639" r="1.4"/><circle cx="52.068" cy="108.719" r="1.2"/><circle cx="52.068" cy="112.768" r=".95"/><circle cx="52.108" cy="116.856" r=".56"/><circle cx="56.034" cy="72.046" r=".35"/><circle cx="56.034" cy="76.127" r=".881"/><circle cx="56.034" cy="80.206" r="1.1"/><circle cx="56.034" cy="84.264" r="1.3"/><circle cx="56.034" cy="88.346" r="1.5"/><circle cx="56.034" cy="92.422" r="1.65"/><circle cx="56.034" cy="96.479" r="1.75"/><circle cx="56.034" cy="100.559" r="1.55"/><circle cx="56.034" cy="104.639" r="1.4"/><circle cx="56.034" cy="108.719" r="1.2"/><circle cx="56.034" cy="112.768" r=".95"/><circle cx="56.075" cy="116.856" r=".56"/><circle cx="60" cy="72.046" r=".35"/><circle cx="60" cy="76.127" r=".881"/><circle cx="60" cy="80.206" r="1.1"/><circle cx="60" cy="84.264" r="1.3"/><circle cx="60" cy="88.346" r="1.5"/><circle cx="60" cy="92.422" r="1.65"/><circle cx="60" cy="96.479" r="1.75"/><circle cx="60" cy="100.559" r="1.55"/><circle cx="60" cy="104.639" r="1.4"/><circle cx="60" cy="108.719" r="1.2"/><circle cx="60" cy="112.768" r=".95"/><circle cx="60.041" cy="116.856" r=".56"/><circle cx="63.966" cy="72.046" r=".35"/><circle cx="63.966" cy="76.127" r=".881"/><circle cx="63.966" cy="80.206" r="1.1"/><circle cx="63.967" cy="84.264" r="1.3"/><circle cx="63.967" cy="88.346" r="1.5"/><circle cx="63.966" cy="92.422" r="1.65"/><circle cx="63.967" cy="96.479" r="1.75"/><circle cx="63.967" cy="100.559" r="1.55"/><circle cx="63.966" cy="104.639" r="1.4"/><circle cx="63.967" cy="108.719" r="1.2"/><circle cx="63.967" cy="112.768" r=".95"/><circle cx="64.007" cy="116.856" r=".56"/><circle cx="47.959" cy="47.953" r=".5"/><circle cx="43.885" cy="47.953" r=".75"/><circle cx="39.81" cy="47.953" r="1"/><circle cx="35.735" cy="47.953" r="1.25"/><circle cx="31.661" cy="47.953" r="1.5"/><circle cx="27.586" cy="47.953" r="1.75"/><circle cx="23.513" cy="47.953" r="1.559"/><circle cx="19.439" cy="47.953" r="1.367"/><circle cx="15.365" cy="47.953" r="1.175"/><circle cx="11.292" cy="47.953" r=".983"/><circle cx="7.218" cy="47.953" r=".792"/><circle cx="3.144" cy="47.953" r=".6"/><circle cx="47.959" cy="43.873" r=".881"/><circle cx="43.885" cy="43.873" r="1.045"/><circle cx="39.81" cy="43.873" r="1.208"/><circle cx="35.735" cy="43.873" r="1.372"/><circle cx="31.661" cy="43.873" r="1.536"/><circle cx="27.586" cy="43.873" r="1.7"/><circle cx="23.513" cy="43.873" r="1.517"/><circle cx="19.439" cy="43.873" r="1.333"/><circle cx="15.365" cy="43.873" r="1.15"/><circle cx="11.292" cy="43.873" r=".966"/><circle cx="7.218" cy="43.873" r=".783"/><circle cx="3.144" cy="43.873" r=".6"/><circle cx="47.959" cy="39.793" r="1.1"/><circle cx="43.885" cy="39.793" r="1.22"/><circle cx="39.81" cy="39.793" r="1.34"/><circle cx="35.735" cy="39.793" r="1.46"/><circle cx="31.661" cy="39.793" r="1.58"/><circle cx="27.586" cy="39.793" r="1.7"/><circle cx="23.513" cy="39.793" r="1.517"/><circle cx="19.439" cy="39.793" r="1.333"/><circle cx="15.365" cy="39.793" r="1.15"/><circle cx="11.292" cy="39.793" r=".966"/><circle cx="7.218" cy="39.793" r=".783"/><circle cx="3.144" cy="39.793" r=".6"/><circle cx="47.959" cy="35.735" r="1.3"/><circle cx="43.885" cy="35.735" r="1.39"/><circle cx="39.81" cy="35.735" r="1.48"/><circle cx="35.735" cy="35.735" r="1.57"/><circle cx="31.661" cy="35.735" r="1.66"/><circle cx="27.586" cy="35.735" r="1.75"/><circle cx="23.513" cy="35.735" r="1.559"/><circle cx="19.439" cy="35.735" r="1.367"/><circle cx="15.365" cy="35.735" r="1.175"/><circle cx="11.292" cy="35.735" r=".983"/><circle cx="7.218" cy="35.735" r=".792"/><circle cx="3.144" cy="35.735" r=".6"/><circle cx="47.959" cy="31.654" r="1.5"/><circle cx="43.885" cy="31.654" r="1.54"/><circle cx="39.81" cy="31.654" r="1.58"/><circle cx="35.735" cy="31.654" r="1.62"/><circle cx="31.661" cy="31.654" r="1.66"/><circle cx="27.586" cy="31.654" r="1.7"/><circle cx="23.513" cy="31.654" r="1.483"/><circle cx="19.438" cy="31.654" r="1.267"/><circle cx="15.365" cy="31.654" r="1.05"/><circle cx="11.292" cy="31.654" r=".833"/><circle cx="7.218" cy="31.654" r=".617"/><circle cx="3.144" cy="31.654" r=".4"/><circle cx="47.959" cy="27.577" r="1.65"/><circle cx="43.885" cy="27.577" r="1.66"/><circle cx="39.81" cy="27.577" r="1.67"/><circle cx="35.735" cy="27.577" r="1.68"/><circle cx="31.661" cy="27.577" r="1.69"/><circle cx="27.586" cy="27.577" r="1.7"/><circle cx="23.515" cy="27.577" r="1.48"/><circle cx="19.445" cy="27.577" r="1.26"/><circle cx="15.374" cy="27.577" r="1.04"/><circle cx="11.304" cy="27.577" r=".82"/><circle cx="7.233" cy="27.577" r=".6"/><circle cx="47.959" cy="23.521" r="1.75"/><circle cx="43.885" cy="23.521" r="1.7"/><circle cx="39.81" cy="23.521" r="1.65"/><circle cx="35.735" cy="23.521" r="1.6"/><circle cx="31.661" cy="23.521" r="1.55"/><circle cx="27.586" cy="23.521" r="1.5"/><circle cx="23.514" cy="23.521" r="1.292"/><circle cx="19.442" cy="23.521" r="1.083"/><circle cx="15.369" cy="23.521" r=".875"/><circle cx="11.297" cy="23.521" r=".667"/><circle cx="7.225" cy="23.521" r=".459"/><circle cx="47.959" cy="19.44" r="1.55"/><circle cx="43.885" cy="19.44" r="1.51"/><circle cx="39.81" cy="19.44" r="1.47"/><circle cx="35.735" cy="19.44" r="1.43"/><circle cx="31.661" cy="19.44" r="1.39"/><circle cx="27.586" cy="19.44" r="1.35"/><circle cx="23.512" cy="19.44" r="1.156"/><circle cx="19.437" cy="19.44" r=".962"/><circle cx="15.362" cy="19.44" r=".769"/><circle cx="11.288" cy="19.44" r=".575"/><circle cx="47.959" cy="15.361" r="1.4"/><circle cx="43.884" cy="15.361" r="1.353"/><circle cx="39.81" cy="15.361" r="1.306"/><circle cx="35.735" cy="15.361" r="1.259"/><circle cx="31.661" cy="15.361" r="1.212"/><circle cx="27.586" cy="15.361" r="1.165"/><circle cx="23.51" cy="15.361" r=".989"/><circle cx="19.434" cy="15.361" r=".812"/><circle cx="15.358" cy="15.361" r=".636"/><circle cx="47.959" cy="11.28" r="1.2"/><circle cx="43.885" cy="11.28" r="1.152"/><circle cx="39.81" cy="11.28" r="1.104"/><circle cx="35.735" cy="11.28" r="1.057"/><circle cx="31.661" cy="11.28" r="1.009"/><circle cx="27.586" cy="11.28" r=".961"/><circle cx="23.516" cy="11.28" r=".77"/><circle cx="19.445" cy="11.28" r=".577"/><circle cx="47.959" cy="7.231" r=".95"/><circle cx="43.884" cy="7.231" r=".894"/><circle cx="39.81" cy="7.232" r=".838"/><circle cx="35.735" cy="7.232" r=".782"/><circle cx="31.661" cy="7.231" r=".726"/><circle cx="27.586" cy="7.231" r=".67"/><circle cx="23.527" cy="7.231" r=".45"/><circle cx="47.918" cy="3.143" r=".56"/><circle cx="43.853" cy="3.143" r=".52"/><circle cx="39.788" cy="3.143" r=".48"/><circle cx="35.722" cy="3.143" r=".44"/><circle cx="31.657" cy="3.143" r=".4"/><circle cx="72.047" cy="47.959" r=".5"/><circle cx="72.047" cy="43.884" r=".75"/><circle cx="72.047" cy="39.81" r="1"/><circle cx="72.047" cy="35.734" r="1.25"/><circle cx="72.047" cy="31.66" r="1.5"/><circle cx="72.047" cy="27.586" r="1.75"/><circle cx="72.047" cy="23.512" r="1.559"/><circle cx="72.047" cy="19.438" r="1.367"/><circle cx="72.047" cy="15.364" r="1.175"/><circle cx="72.047" cy="11.291" r=".983"/><circle cx="72.047" cy="7.217" r=".792"/><circle cx="72.047" cy="3.144" r=".6"/><circle cx="76.127" cy="47.958" r=".881"/><circle cx="76.127" cy="43.884" r="1.045"/><circle cx="76.127" cy="39.809" r="1.208"/><circle cx="76.127" cy="35.735" r="1.373"/><circle cx="76.127" cy="31.66" r="1.536"/><circle cx="76.127" cy="27.585" r="1.7"/><circle cx="76.127" cy="23.512" r="1.517"/><circle cx="76.127" cy="19.438" r="1.333"/><circle cx="76.127" cy="15.365" r="1.15"/><circle cx="76.127" cy="11.291" r=".967"/><circle cx="76.127" cy="7.217" r=".784"/><circle cx="76.127" cy="3.144" r=".6"/><circle cx="80.207" cy="47.958" r="1.1"/><circle cx="80.207" cy="43.884" r="1.22"/><circle cx="80.207" cy="39.81" r="1.34"/><circle cx="80.207" cy="35.734" r="1.46"/><circle cx="80.207" cy="31.66" r="1.58"/><circle cx="80.207" cy="27.585" r="1.7"/><circle cx="80.207" cy="23.512" r="1.517"/><circle cx="80.207" cy="19.438" r="1.333"/><circle cx="80.207" cy="15.365" r="1.15"/><circle cx="80.207" cy="11.291" r=".967"/><circle cx="80.207" cy="7.217" r=".784"/><circle cx="80.207" cy="3.144" r=".6"/><circle cx="84.264" cy="47.958" r="1.3"/><circle cx="84.264" cy="43.884" r="1.39"/><circle cx="84.264" cy="39.809" r="1.48"/><circle cx="84.264" cy="35.735" r="1.57"/><circle cx="84.264" cy="31.66" r="1.66"/><circle cx="84.264" cy="27.586" r="1.75"/><circle cx="84.264" cy="23.512" r="1.559"/><circle cx="84.264" cy="19.438" r="1.367"/><circle cx="84.264" cy="15.364" r="1.175"/><circle cx="84.264" cy="11.291" r=".983"/><circle cx="84.264" cy="7.217" r=".792"/><circle cx="84.264" cy="3.144" r=".6"/><circle cx="88.346" cy="47.959" r="1.5"/><circle cx="88.346" cy="43.884" r="1.54"/><circle cx="88.346" cy="39.81" r="1.58"/><circle cx="88.346" cy="35.735" r="1.62"/><circle cx="88.346" cy="31.66" r="1.66"/><circle cx="88.346" cy="27.585" r="1.7"/><circle cx="88.346" cy="23.512" r="1.483"/><circle cx="88.346" cy="19.438" r="1.267"/><circle cx="88.346" cy="15.364" r="1.05"/><circle cx="88.346" cy="11.291" r=".833"/><circle cx="88.346" cy="7.217" r=".617"/><circle cx="88.346" cy="3.144" r=".4"/><circle cx="92.423" cy="47.958" r="1.65"/><circle cx="92.423" cy="43.884" r="1.66"/><circle cx="92.423" cy="39.81" r="1.67"/><circle cx="92.423" cy="35.735" r="1.68"/><circle cx="92.423" cy="31.66" r="1.69"/><circle cx="92.423" cy="27.585" r="1.7"/><circle cx="92.423" cy="23.515" r="1.48"/><circle cx="92.423" cy="19.444" r="1.26"/><circle cx="92.423" cy="15.374" r="1.04"/><circle cx="92.423" cy="11.303" r=".82"/><circle cx="92.423" cy="7.232" r=".6"/><circle cx="96.479" cy="47.959" r="1.75"/><circle cx="96.479" cy="43.884" r="1.7"/><circle cx="96.479" cy="39.809" r="1.65"/><circle cx="96.479" cy="35.735" r="1.6"/><circle cx="96.479" cy="31.66" r="1.55"/><circle cx="96.479" cy="27.586" r="1.5"/><circle cx="96.479" cy="23.513" r="1.292"/><circle cx="96.479" cy="19.441" r="1.083"/><circle cx="96.479" cy="15.369" r=".875"/><circle cx="96.479" cy="11.296" r=".667"/><circle cx="96.479" cy="7.224" r=".458"/><circle cx="100.56" cy="47.958" r="1.55"/><circle cx="100.56" cy="43.884" r="1.51"/><circle cx="100.56" cy="39.81" r="1.47"/><circle cx="100.56" cy="35.735" r="1.43"/><circle cx="100.56" cy="31.66" r="1.39"/><circle cx="100.56" cy="27.585" r="1.35"/><circle cx="100.56" cy="23.511" r="1.156"/><circle cx="100.56" cy="19.436" r=".962"/><circle cx="100.56" cy="15.362" r=".769"/><circle cx="100.56" cy="11.287" r=".575"/><circle cx="104.639" cy="47.958" r="1.4"/><circle cx="104.639" cy="43.884" r="1.353"/><circle cx="104.639" cy="39.809" r="1.306"/><circle cx="104.639" cy="35.735" r="1.259"/><circle cx="104.639" cy="31.66" r="1.212"/><circle cx="104.639" cy="27.585" r="1.166"/><circle cx="104.639" cy="23.509" r=".989"/><circle cx="104.639" cy="19.434" r=".813"/><circle cx="104.639" cy="15.357" r=".636"/><circle cx="108.72" cy="47.958" r="1.2"/><circle cx="108.72" cy="43.884" r="1.152"/><circle cx="108.72" cy="39.81" r="1.104"/><circle cx="108.72" cy="35.735" r="1.057"/><circle cx="108.72" cy="31.66" r="1.009"/><circle cx="108.72" cy="27.585" r=".961"/><circle cx="108.72" cy="23.515" r=".769"/><circle cx="108.72" cy="19.444" r=".577"/><circle cx="112.768" cy="47.958" r=".95"/><circle cx="112.768" cy="43.884" r=".894"/><circle cx="112.768" cy="39.81" r=".838"/><circle cx="112.768" cy="35.735" r=".782"/><circle cx="112.768" cy="31.66" r=".726"/><circle cx="112.768" cy="27.585" r=".67"/><circle cx="112.768" cy="23.526" r=".45"/><circle cx="116.856" cy="47.918" r=".56"/><circle cx="116.856" cy="43.853" r=".52"/><circle cx="116.856" cy="39.788" r=".48"/><circle cx="116.856" cy="35.722" r=".44"/><circle cx="116.856" cy="31.656" r=".4"/><circle cx="47.954" cy="72.04" r=".5"/><circle cx="47.954" cy="76.115" r=".75"/><circle cx="47.954" cy="80.189" r="1"/><circle cx="47.954" cy="84.265" r="1.25"/><circle cx="47.954" cy="88.339" r="1.5"/><circle cx="47.954" cy="92.414" r="1.75"/><circle cx="47.954" cy="96.487" r="1.559"/><circle cx="47.954" cy="100.561" r="1.367"/><circle cx="47.954" cy="104.635" r="1.175"/><circle cx="47.954" cy="108.708" r=".983"/><circle cx="47.954" cy="112.782" r=".792"/><circle cx="47.954" cy="116.855" r=".6"/><circle cx="43.873" cy="72.041" r=".881"/><circle cx="43.873" cy="76.115" r="1.045"/><circle cx="43.873" cy="80.19" r="1.208"/><circle cx="43.873" cy="84.264" r="1.373"/><circle cx="43.873" cy="88.339" r="1.536"/><circle cx="43.873" cy="92.414" r="1.7"/><circle cx="43.873" cy="96.487" r="1.517"/><circle cx="43.873" cy="100.561" r="1.333"/><circle cx="43.873" cy="104.634" r="1.15"/><circle cx="43.873" cy="108.708" r=".967"/><circle cx="43.873" cy="112.782" r=".784"/><circle cx="43.873" cy="116.855" r=".6"/><circle cx="39.793" cy="72.041" r="1.1"/><circle cx="39.793" cy="76.115" r="1.22"/><circle cx="39.793" cy="80.189" r="1.34"/><circle cx="39.793" cy="84.265" r="1.46"/><circle cx="39.793" cy="88.339" r="1.58"/><circle cx="39.793" cy="92.414" r="1.7"/><circle cx="39.793" cy="96.487" r="1.517"/><circle cx="39.793" cy="100.561" r="1.333"/><circle cx="39.793" cy="104.634" r="1.15"/><circle cx="39.793" cy="108.708" r=".967"/><circle cx="39.793" cy="112.782" r=".784"/><circle cx="39.793" cy="116.855" r=".6"/><circle cx="35.736" cy="72.041" r="1.3"/><circle cx="35.736" cy="76.115" r="1.39"/><circle cx="35.736" cy="80.19" r="1.48"/><circle cx="35.736" cy="84.264" r="1.57"/><circle cx="35.736" cy="88.339" r="1.66"/><circle cx="35.736" cy="92.414" r="1.75"/><circle cx="35.736" cy="96.487" r="1.559"/><circle cx="35.736" cy="100.561" r="1.367"/><circle cx="35.736" cy="104.635" r="1.175"/><circle cx="35.736" cy="108.708" r=".983"/><circle cx="35.736" cy="112.782" r=".792"/><circle cx="35.736" cy="116.855" r=".6"/><circle cx="31.654" cy="72.04" r="1.5"/><circle cx="31.654" cy="76.115" r="1.54"/><circle cx="31.654" cy="80.189" r="1.58"/><circle cx="31.654" cy="84.265" r="1.62"/><circle cx="31.654" cy="88.339" r="1.66"/><circle cx="31.654" cy="92.414" r="1.7"/><circle cx="31.654" cy="96.487" r="1.483"/><circle cx="31.654" cy="100.561" r="1.267"/><circle cx="31.654" cy="104.635" r="1.05"/><circle cx="31.654" cy="108.708" r=".833"/><circle cx="31.654" cy="112.782" r=".617"/><circle cx="31.654" cy="116.855" r=".4"/><circle cx="27.578" cy="72.041" r="1.65"/><circle cx="27.578" cy="76.115" r="1.66"/><circle cx="27.578" cy="80.189" r="1.67"/><circle cx="27.578" cy="84.264" r="1.68"/><circle cx="27.578" cy="88.339" r="1.69"/><circle cx="27.578" cy="92.414" r="1.7"/><circle cx="27.578" cy="96.484" r="1.48"/><circle cx="27.578" cy="100.555" r="1.26"/><circle cx="27.578" cy="104.625" r="1.04"/><circle cx="27.578" cy="108.696" r=".82"/><circle cx="27.578" cy="112.767" r=".6"/><circle cx="23.521" cy="72.04" r="1.75"/><circle cx="23.521" cy="76.115" r="1.7"/><circle cx="23.521" cy="80.19" r="1.65"/><circle cx="23.521" cy="84.264" r="1.6"/><circle cx="23.521" cy="88.339" r="1.55"/><circle cx="23.521" cy="92.414" r="1.5"/><circle cx="23.521" cy="96.486" r="1.292"/><circle cx="23.521" cy="100.558" r="1.083"/><circle cx="23.521" cy="104.631" r=".875"/><circle cx="23.521" cy="108.703" r=".667"/><circle cx="23.521" cy="112.775" r=".458"/><circle cx="19.441" cy="72.041" r="1.55"/><circle cx="19.441" cy="76.115" r="1.51"/><circle cx="19.441" cy="80.19" r="1.47"/><circle cx="19.441" cy="84.264" r="1.43"/><circle cx="19.441" cy="88.339" r="1.39"/><circle cx="19.441" cy="92.414" r="1.35"/><circle cx="19.441" cy="96.488" r="1.156"/><circle cx="19.441" cy="100.563" r=".962"/><circle cx="19.441" cy="104.638" r=".769"/><circle cx="19.441" cy="108.712" r=".575"/><circle cx="15.361" cy="72.041" r="1.4"/><circle cx="15.361" cy="76.115" r="1.353"/><circle cx="15.361" cy="80.19" r="1.306"/><circle cx="15.361" cy="84.264" r="1.259"/><circle cx="15.361" cy="88.339" r="1.212"/><circle cx="15.361" cy="92.414" r="1.166"/><circle cx="15.361" cy="96.49" r=".989"/><circle cx="15.361" cy="100.565" r=".813"/><circle cx="15.361" cy="104.642" r=".636"/><circle cx="11.281" cy="72.041" r="1.2"/><circle cx="11.281" cy="76.115" r="1.152"/><circle cx="11.281" cy="80.189" r="1.104"/><circle cx="11.281" cy="84.265" r="1.057"/><circle cx="11.281" cy="88.339" r="1.009"/><circle cx="11.281" cy="92.414" r=".961"/><circle cx="11.281" cy="96.484" r=".769"/><circle cx="11.281" cy="100.555" r=".577"/><circle cx="7.232" cy="72.041" r=".95"/><circle cx="7.232" cy="76.115" r=".894"/><circle cx="7.232" cy="80.189" r=".838"/><circle cx="7.232" cy="84.265" r=".782"/><circle cx="7.232" cy="88.339" r=".726"/><circle cx="7.232" cy="92.414" r=".67"/><circle cx="7.232" cy="96.473" r=".45"/><circle cx="3.144" cy="72.081" r=".56"/><circle cx="3.144" cy="76.146" r=".52"/><circle cx="3.144" cy="80.212" r=".48"/><circle cx="3.144" cy="84.277" r=".44"/><circle cx="3.144" cy="88.343" r=".4"/><circle cx="72.041" cy="72.046" r=".5"/><circle cx="76.116" cy="72.046" r=".75"/><circle cx="80.19" cy="72.046" r="1"/><circle cx="84.265" cy="72.046" r="1.25"/><circle cx="88.34" cy="72.046" r="1.5"/><circle cx="92.414" cy="72.046" r="1.75"/><circle cx="96.488" cy="72.046" r="1.558"/><circle cx="100.562" cy="72.046" r="1.367"/><circle cx="104.635" cy="72.046" r="1.175"/><circle cx="108.709" cy="72.046" r=".983"/><circle cx="112.783" cy="72.046" r=".792"/><circle cx="116.856" cy="72.046" r=".6"/><circle cx="72.041" cy="76.127" r=".881"/><circle cx="76.116" cy="76.127" r="1.044"/><circle cx="80.19" cy="76.127" r="1.209"/><circle cx="84.265" cy="76.127" r="1.373"/><circle cx="88.34" cy="76.127" r="1.536"/><circle cx="92.414" cy="76.127" r="1.7"/><circle cx="96.488" cy="76.127" r="1.517"/><circle cx="100.562" cy="76.127" r="1.333"/><circle cx="104.635" cy="76.127" r="1.15"/><circle cx="108.709" cy="76.127" r=".967"/><circle cx="112.782" cy="76.127" r=".783"/><circle cx="116.856" cy="76.127" r=".6"/><circle cx="72.042" cy="80.206" r="1.1"/><circle cx="76.116" cy="80.206" r="1.22"/><circle cx="80.19" cy="80.206" r="1.34"/><circle cx="84.265" cy="80.206" r="1.46"/><circle cx="88.34" cy="80.206" r="1.58"/><circle cx="92.414" cy="80.206" r="1.7"/><circle cx="96.488" cy="80.206" r="1.517"/><circle cx="100.562" cy="80.206" r="1.333"/><circle cx="104.635" cy="80.206" r="1.15"/><circle cx="108.709" cy="80.206" r=".967"/><circle cx="112.782" cy="80.206" r=".783"/><circle cx="116.856" cy="80.206" r=".6"/><circle cx="72.041" cy="84.264" r="1.3"/><circle cx="76.116" cy="84.264" r="1.39"/><circle cx="80.19" cy="84.264" r="1.48"/><circle cx="84.265" cy="84.264" r="1.57"/><circle cx="88.34" cy="84.264" r="1.66"/><circle cx="92.414" cy="84.264" r="1.75"/><circle cx="96.488" cy="84.264" r="1.558"/><circle cx="100.562" cy="84.264" r="1.367"/><circle cx="104.635" cy="84.264" r="1.175"/><circle cx="108.709" cy="84.264" r=".983"/><circle cx="112.783" cy="84.264" r=".792"/><circle cx="116.856" cy="84.264" r=".6"/><circle cx="72.041" cy="88.346" r="1.5"/><circle cx="76.116" cy="88.346" r="1.54"/><circle cx="80.19" cy="88.346" r="1.58"/><circle cx="84.265" cy="88.346" r="1.62"/><circle cx="88.34" cy="88.346" r="1.66"/><circle cx="92.414" cy="88.346" r="1.7"/><circle cx="96.488" cy="88.346" r="1.483"/><circle cx="100.562" cy="88.346" r="1.267"/><circle cx="104.635" cy="88.346" r="1.05"/><circle cx="108.709" cy="88.346" r=".833"/><circle cx="112.783" cy="88.346" r=".617"/><circle cx="116.856" cy="88.346" r=".4"/><circle cx="72.042" cy="92.422" r="1.65"/><circle cx="76.116" cy="92.422" r="1.66"/><circle cx="80.19" cy="92.422" r="1.67"/><circle cx="84.265" cy="92.422" r="1.68"/><circle cx="88.339" cy="92.422" r="1.69"/><circle cx="92.414" cy="92.422" r="1.7"/><circle cx="96.485" cy="92.422" r="1.48"/><circle cx="100.556" cy="92.422" r="1.26"/><circle cx="104.626" cy="92.422" r="1.04"/><circle cx="108.697" cy="92.422" r=".82"/><circle cx="112.767" cy="92.422" r=".6"/><circle cx="72.041" cy="96.479" r="1.75"/><circle cx="76.116" cy="96.479" r="1.7"/><circle cx="80.19" cy="96.479" r="1.65"/><circle cx="84.265" cy="96.479" r="1.6"/><circle cx="88.34" cy="96.479" r="1.55"/><circle cx="92.414" cy="96.479" r="1.5"/><circle cx="96.487" cy="96.479" r="1.292"/><circle cx="100.559" cy="96.479" r="1.083"/><circle cx="104.631" cy="96.479" r=".875"/><circle cx="108.704" cy="96.479" r=".667"/><circle cx="112.776" cy="96.479" r=".458"/><circle cx="72.041" cy="100.559" r="1.55"/><circle cx="76.116" cy="100.559" r="1.51"/><circle cx="80.19" cy="100.559" r="1.47"/><circle cx="84.265" cy="100.559" r="1.43"/><circle cx="88.339" cy="100.559" r="1.39"/><circle cx="92.415" cy="100.559" r="1.35"/><circle cx="96.489" cy="100.559" r="1.156"/><circle cx="100.563" cy="100.559" r=".963"/><circle cx="104.638" cy="100.559" r=".769"/><circle cx="108.713" cy="100.559" r=".575"/><circle cx="72.042" cy="104.639" r="1.4"/><circle cx="76.116" cy="104.639" r="1.353"/><circle cx="80.19" cy="104.639" r="1.306"/><circle cx="84.265" cy="104.639" r="1.259"/><circle cx="88.34" cy="104.639" r="1.212"/><circle cx="92.414" cy="104.639" r="1.165"/><circle cx="96.49" cy="104.639" r=".988"/><circle cx="100.566" cy="104.639" r=".812"/><circle cx="104.642" cy="104.639" r=".635"/><circle cx="72.041" cy="108.719" r="1.2"/><circle cx="76.116" cy="108.719" r="1.152"/><circle cx="80.19" cy="108.719" r="1.104"/><circle cx="84.265" cy="108.719" r="1.057"/><circle cx="88.34" cy="108.719" r="1.009"/><circle cx="92.415" cy="108.719" r=".961"/><circle cx="96.485" cy="108.719" r=".769"/><circle cx="100.555" cy="108.719" r=".577"/><circle cx="72.041" cy="112.768" r=".95"/><circle cx="76.116" cy="112.768" r=".894"/><circle cx="80.19" cy="112.768" r=".838"/><circle cx="84.265" cy="112.768" r=".782"/><circle cx="88.339" cy="112.768" r=".726"/><circle cx="92.414" cy="112.768" r=".67"/><circle cx="96.474" cy="112.768" r=".45"/><circle cx="72.082" cy="116.856" r=".56"/><circle cx="76.147" cy="116.856" r=".52"/><circle cx="80.212" cy="116.856" r=".48"/><circle cx="84.278" cy="116.856" r=".44"/><circle cx="88.343" cy="116.856" r=".4"/></g></svg>