<?xml version="1.0" encoding="UTF-8"?>
<svg xmlns="http://www.w3.org/2000/svg" width="1000" height="1184" viewBox="0 0 1000 1184" role="img">
  <title>Schriftmuster Vollkorn</title>
  <rect y="258" width="1000" height="468" fill="#d6e8ef"/>
  <rect y="726" width="1000" height="458" fill="#b1d0dc"/>
  <path fill="#e6eff3" transform="translate(435.2 722.4) scale(0.400000 -0.400000)" d="M358 682 596 136Q613 99 624 79Q635 59 646 51Q658 43 673 40Q677 27 678 18Q679 9 679 -3Q669 -2 648 -2Q627 -1 604 0Q581 0 565 0Q553 0 537 0Q521 -1 504 -2Q487 -2 474 -2Q460 -3 452 -3Q452 9 454 20Q455 31 459 40Q500 45 508 58Q515 72 495 118L356 443Q343 474 333 498Q323 522 309 559H314Q302 521 292 494Q283 468 274 444L160 147Q138 88 146 66Q155 43 196 40Q200 31 202 20Q203 9 203 -3Q192 -2 176 -2Q160 -1 142 0Q125 0 108 0Q83 0 61 -1Q39 -2 25 -3Q25 7 26 18Q28 30 32 39Q50 43 62 53Q74 63 86 86Q97 108 112 147L319 678Q329 680 338 681Q346 682 358 682ZM449 265 458 220Q391 220 314 219Q238 218 176 216L192 265Z M1047 -9Q1036 -4 1030 9Q1023 22 1023 50Q1023 59 1024 72Q1025 84 1028 94H1030Q1027 78 1016 60Q1006 41 989 27Q972 12 946 2Q920 -7 883 -7Q820 -7 787 22Q754 50 754 99Q754 138 772 166Q791 193 820 212Q850 230 884 241Q919 252 952 258Q985 264 1010 268Q1010 309 1008 332Q1007 355 1002 368Q998 382 989 392Q977 407 962 414Q946 422 927 422Q894 422 875 402Q856 381 848 354Q840 327 839 306Q828 306 812 308Q795 309 787 313Q789 338 788 369Q787 400 782 422Q823 443 868 455Q914 467 952 467Q989 467 1016 456Q1042 446 1058 429Q1084 404 1092 364Q1100 323 1100 256V146Q1100 118 1104 102Q1109 85 1122 78Q1135 70 1162 68Q1162 58 1161 46Q1160 33 1156 22Q1131 21 1100 12Q1070 4 1047 -9ZM911 48Q933 48 956 62Q979 77 994 108Q1010 139 1010 189V227Q985 224 957 218Q929 213 905 202Q881 191 866 172Q851 152 851 119Q851 82 869 65Q887 48 911 48Z"/>
  <rect width="1000" height="258" fill="#f0f6f9"/>
  <path fill="#20596e" transform="translate(100.0 201.3) scale(0.204000 -0.204000)" d="M322 -6Q286 91 250 186Q213 280 179 366Q145 452 115 521Q94 570 82 594Q70 618 59 626Q48 634 30 636Q27 648 26 660Q25 671 25 679Q35 678 49 678Q63 677 80 676Q96 676 113 676Q130 676 146 676Q178 676 208 677Q239 678 267 679Q267 670 266 658Q264 647 262 636Q229 634 213 626Q197 617 200 594Q202 572 222 526Q249 462 275 396Q301 330 326 262Q352 195 378 123H363Q392 188 418 252Q445 316 470 382Q496 447 520 514Q539 570 532 600Q524 631 479 636Q476 647 475 659Q474 671 474 679Q489 678 502 678Q516 677 530 676Q544 676 559 676Q582 676 610 677Q639 678 661 679Q661 668 660 658Q659 647 656 636Q625 629 607 598Q589 568 570 518Q520 389 468 259Q415 129 361 -2Q351 -4 342 -5Q334 -6 322 -6Z M952 -9Q884 -9 833 20Q782 50 754 104Q726 157 726 229Q726 297 755 351Q784 405 835 436Q886 467 952 467Q1023 467 1074 437Q1124 407 1151 354Q1178 300 1178 229Q1178 161 1150 107Q1121 53 1070 22Q1020 -9 952 -9ZM960 39Q1020 39 1049 88Q1078 138 1078 217Q1078 279 1060 324Q1041 370 1010 394Q979 419 942 419Q884 419 856 372Q827 325 827 250Q827 183 844 136Q860 88 890 64Q920 39 960 39Z M1254 -3Q1254 7 1255 18Q1256 30 1259 40Q1299 40 1314 58Q1328 77 1328 127V575Q1328 599 1324 614Q1319 630 1303 638Q1287 646 1253 646Q1253 657 1255 666Q1257 675 1262 683Q1277 683 1304 688Q1332 693 1358 701Q1384 709 1396 717Q1405 714 1412 705Q1418 696 1418 677V127Q1418 77 1432 58Q1445 40 1477 40Q1480 30 1481 17Q1482 4 1482 -3Q1465 -2 1446 -2Q1427 -1 1408 0Q1388 0 1369 0Q1350 0 1330 0Q1309 -1 1290 -2Q1271 -2 1254 -3Z M1553 -3Q1553 7 1554 18Q1555 30 1558 40Q1598 40 1612 58Q1627 77 1627 127V575Q1627 599 1622 614Q1618 630 1602 638Q1586 646 1552 646Q1552 657 1554 666Q1556 675 1561 683Q1576 683 1604 688Q1631 693 1657 701Q1683 709 1695 717Q1704 714 1710 705Q1717 696 1717 677V127Q1717 77 1730 58Q1744 40 1776 40Q1779 30 1780 17Q1781 4 1781 -3Q1764 -2 1745 -2Q1726 -1 1706 0Q1687 0 1668 0Q1649 0 1628 0Q1608 -1 1589 -2Q1570 -2 1553 -3Z M1852 -3Q1852 7 1853 18Q1854 30 1857 40Q1897 40 1912 58Q1926 77 1926 127V575Q1926 599 1922 614Q1917 630 1901 638Q1885 646 1851 646Q1851 657 1853 666Q1855 675 1860 683Q1875 683 1902 688Q1930 693 1956 701Q1982 709 1994 717Q2003 714 2010 705Q2016 696 2016 677V127Q2016 77 2030 58Q2043 40 2075 40Q2078 30 2079 17Q2080 4 2080 -3Q2054 -1 2025 0Q1996 0 1967 0Q1948 0 1928 0Q1907 -1 1888 -2Q1869 -2 1852 -3ZM2208 -9Q2191 17 2167 49Q2143 81 2115 116Q2087 150 2058 182Q2028 215 2001 241L2090 323Q2124 354 2139 374Q2154 393 2154 403Q2154 411 2146 415Q2139 419 2125 419Q2122 429 2120 439Q2119 449 2119 460Q2141 459 2160 458Q2178 458 2194 458Q2210 458 2223 458Q2240 458 2265 458Q2290 459 2317 460Q2317 450 2316 438Q2314 427 2310 418Q2291 418 2272 412Q2254 406 2234 393Q2213 380 2188 357L2078 257L2076 289Q2111 253 2148 212Q2185 170 2237 106Q2257 82 2272 69Q2286 56 2302 50Q2318 45 2341 43Q2341 29 2340 18Q2339 8 2336 0Q2312 0 2291 -1Q2270 -2 2250 -4Q2230 -5 2208 -9Z M2627 -9Q2559 -9 2508 20Q2457 50 2429 104Q2401 157 2401 229Q2401 297 2430 351Q2459 405 2510 436Q2561 467 2627 467Q2698 467 2748 437Q2799 407 2826 354Q2853 300 2853 229Q2853 161 2824 107Q2796 53 2746 22Q2695 -9 2627 -9ZM2635 39Q2695 39 2724 88Q2753 138 2753 217Q2753 279 2734 324Q2716 370 2685 394Q2654 419 2617 419Q2559 419 2530 372Q2502 325 2502 250Q2502 183 2518 136Q2535 88 2565 64Q2595 39 2635 39Z M3094 147Q3094 104 3103 82Q3112 59 3132 50Q3152 42 3183 40Q3186 32 3187 22Q3188 11 3188 -3Q3173 -2 3152 -2Q3132 -1 3109 0Q3086 0 3062 0Q3027 0 2988 0Q2950 -1 2930 -3Q2930 11 2931 22Q2932 32 2935 40Q2962 42 2977 50Q2992 57 2998 76Q3004 94 3004 127V227H3094ZM3094 293V214H3004V325L3094 423Q3094 389 3088 362Q3082 334 3077 307ZM3072 301Q3083 329 3089 347Q3095 365 3102 377Q3124 412 3154 435Q3184 458 3223 458Q3261 458 3292 434Q3290 418 3288 397Q3286 376 3286 355Q3285 334 3285 316Q3276 313 3260 310Q3245 307 3228 307Q3226 355 3212 370Q3199 385 3179 385Q3162 385 3142 366Q3122 346 3108 314Q3094 282 3094 243ZM3004 214V325Q3004 349 2999 364Q2994 379 2978 387Q2962 395 2929 396Q2929 407 2931 416Q2933 425 2938 433Q2969 435 3009 445Q3049 455 3072 467Q3081 464 3088 454Q3094 445 3094 423Z M3423 214V325Q3423 349 3418 364Q3413 379 3397 387Q3381 395 3348 396Q3348 407 3350 416Q3352 425 3357 433Q3388 435 3428 445Q3468 455 3491 467Q3500 464 3506 454Q3513 445 3513 423ZM3809 127Q3809 75 3824 58Q3838 40 3868 40Q3871 31 3872 21Q3873 11 3873 -3Q3851 -1 3823 0Q3795 0 3764 0Q3744 0 3722 0Q3700 -1 3680 -2Q3661 -2 3645 -3Q3645 11 3646 22Q3647 32 3650 40Q3686 40 3702 58Q3719 77 3719 127V279Q3719 350 3693 376Q3667 401 3626 401Q3600 401 3574 384Q3548 368 3530 332Q3513 295 3513 234V127Q3513 77 3528 58Q3543 40 3582 40Q3585 31 3586 21Q3587 11 3587 -3Q3573 -2 3553 -2Q3533 -1 3511 0Q3489 0 3468 0Q3448 0 3426 0Q3404 -1 3384 -2Q3364 -2 3349 -3Q3349 11 3350 22Q3351 32 3354 40Q3393 40 3408 58Q3423 77 3423 127V325L3513 423Q3513 411 3512 396Q3511 381 3506 364Q3509 369 3512 376Q3515 382 3521 390Q3538 413 3576 438Q3613 462 3666 462Q3704 462 3736 446Q3769 431 3789 396Q3809 360 3809 299Z"/>
  <path fill="#1e4b5b" transform="translate(100.0 422.8) scale(0.095000 -0.095000)" d="M358 682 596 136Q613 99 624 79Q635 59 646 51Q658 43 673 40Q677 27 678 18Q679 9 679 -3Q669 -2 648 -2Q627 -1 604 0Q581 0 565 0Q553 0 537 0Q521 -1 504 -2Q487 -2 474 -2Q460 -3 452 -3Q452 9 454 20Q455 31 459 40Q500 45 508 58Q515 72 495 118L356 443Q343 474 333 498Q323 522 309 559H314Q302 521 292 494Q283 468 274 444L160 147Q138 88 146 66Q155 43 196 40Q200 31 202 20Q203 9 203 -3Q192 -2 176 -2Q160 -1 142 0Q125 0 108 0Q83 0 61 -1Q39 -2 25 -3Q25 7 26 18Q28 30 32 39Q50 43 62 53Q74 63 86 86Q97 108 112 147L319 678Q329 680 338 681Q346 682 358 682ZM449 265 458 220Q391 220 314 219Q238 218 176 216L192 265Z M1047 -9Q1036 -4 1030 9Q1023 22 1023 50Q1023 59 1024 72Q1025 84 1028 94H1030Q1027 78 1016 60Q1006 41 989 27Q972 12 946 2Q920 -7 883 -7Q820 -7 787 22Q754 50 754 99Q754 138 772 166Q791 193 820 212Q850 230 884 241Q919 252 952 258Q985 264 1010 268Q1010 309 1008 332Q1007 355 1002 368Q998 382 989 392Q977 407 962 414Q946 422 927 422Q894 422 875 402Q856 381 848 354Q840 327 839 306Q828 306 812 308Q795 309 787 313Q789 338 788 369Q787 400 782 422Q823 443 868 455Q914 467 952 467Q989 467 1016 456Q1042 446 1058 429Q1084 404 1092 364Q1100 323 1100 256V146Q1100 118 1104 102Q1109 85 1122 78Q1135 70 1162 68Q1162 58 1161 46Q1160 33 1156 22Q1131 21 1100 12Q1070 4 1047 -9ZM911 48Q933 48 956 62Q979 77 994 108Q1010 139 1010 189V227Q985 224 957 218Q929 213 905 202Q881 191 866 172Q851 152 851 119Q851 82 869 65Q887 48 911 48Z M1458 679Q1473 678 1496 678Q1518 677 1543 676Q1568 676 1590 676Q1613 676 1626 676V138Q1626 101 1633 81Q1640 61 1660 53Q1680 45 1717 45V0Q1689 0 1652 0Q1616 0 1578 0Q1541 -1 1509 -2Q1477 -2 1458 -3Q1458 11 1459 22Q1460 32 1463 40Q1490 42 1505 50Q1520 58 1526 78Q1532 99 1532 138V549Q1532 583 1526 601Q1520 619 1505 627Q1490 635 1463 636Q1460 644 1459 656Q1458 667 1458 679ZM1918 171Q1933 167 1943 162Q1953 156 1962 147Q1951 113 1944 73Q1936 33 1931 -2Q1912 -1 1880 -1Q1847 -1 1806 0Q1764 0 1717 0V45H1723Q1795 45 1832 60Q1868 74 1886 102Q1904 130 1918 171ZM1848 450Q1847 425 1846 396Q1846 367 1846 341Q1846 315 1846 283Q1847 251 1848 225Q1835 225 1824 226Q1813 227 1802 230Q1798 282 1774 300Q1751 319 1689 319H1617V362H1689Q1751 362 1775 378Q1799 394 1800 443Q1813 447 1824 448Q1835 450 1848 450ZM1907 679Q1909 657 1912 628Q1915 599 1919 571Q1923 543 1928 521Q1920 514 1908 512Q1897 509 1883 509Q1881 540 1867 569Q1853 598 1818 617Q1784 636 1719 636H1605L1626 676Q1705 676 1762 676Q1818 677 1854 678Q1891 679 1907 679Z M2255 -9Q2184 -9 2137 23Q2090 55 2066 110Q2043 164 2043 229Q2043 293 2068 347Q2093 401 2140 434Q2186 467 2250 467Q2315 467 2354 439Q2394 411 2414 364Q2433 317 2437 260Q2433 240 2422 226Q2405 226 2371 226Q2337 226 2294 226Q2251 225 2206 224Q2161 222 2121 220V271H2333Q2333 337 2309 378Q2285 419 2241 419Q2217 419 2194 404Q2171 390 2156 354Q2141 317 2141 250Q2141 201 2154 154Q2166 108 2198 78Q2229 47 2287 47Q2320 47 2352 62Q2384 77 2409 105Q2417 101 2424 92Q2432 82 2433 74Q2399 29 2354 10Q2310 -9 2255 -9Z M3174 -9Q3154 24 3141 46Q3128 69 3118 88Q3108 108 3095 131Q3076 167 3058 196Q3040 225 3016 255Q2993 285 2958 321L2984 308Q2958 307 2936 307Q2914 307 2894 308V355Q2908 353 2920 352Q2932 351 2945 351Q3000 351 3044 366Q3088 382 3114 415Q3140 448 3140 500Q3140 559 3102 596Q3065 634 2975 634Q2952 634 2934 632Q2916 630 2896 625L2901 636V127Q2901 94 2907 76Q2913 57 2928 50Q2942 42 2967 40Q2970 31 2971 20Q2972 8 2972 -3Q2951 -1 2928 0Q2905 0 2886 0Q2866 0 2853 0Q2827 0 2792 0Q2756 -1 2733 -3Q2733 8 2734 19Q2735 30 2738 40Q2765 42 2780 50Q2795 57 2801 76Q2807 94 2807 127V549Q2807 583 2801 602Q2795 620 2780 628Q2765 636 2738 636Q2735 646 2734 656Q2733 666 2733 678Q2748 677 2783 676Q2818 676 2853 676Q2894 676 2936 677Q2978 678 3020 678Q3096 678 3144 656Q3192 634 3215 596Q3238 558 3238 510Q3238 464 3216 426Q3194 389 3154 364Q3113 338 3057 325L3062 337Q3090 308 3110 282Q3129 256 3150 223Q3171 190 3200 140Q3221 105 3238 84Q3254 64 3276 54Q3298 45 3335 43Q3335 31 3334 21Q3334 11 3331 0Q3294 0 3252 -2Q3211 -3 3174 -9Z M3562 147Q3562 104 3571 82Q3580 59 3600 50Q3620 42 3651 40Q3654 32 3655 22Q3656 11 3656 -3Q3641 -2 3620 -2Q3600 -1 3577 0Q3554 0 3530 0Q3495 0 3456 0Q3418 -1 3398 -3Q3398 11 3399 22Q3400 32 3403 40Q3430 42 3445 50Q3460 57 3466 76Q3472 94 3472 127V227H3562ZM3562 293V214H3472V325L3562 423Q3562 389 3556 362Q3550 334 3545 307ZM3540 301Q3551 329 3557 347Q3563 365 3570 377Q3592 412 3622 435Q3652 458 3691 458Q3729 458 3760 434Q3758 418 3756 397Q3754 376 3754 355Q3753 334 3753 316Q3744 313 3728 310Q3713 307 3696 307Q3694 355 3680 370Q3667 385 3647 385Q3630 385 3610 366Q3590 346 3576 314Q3562 282 3562 243ZM3472 214V325Q3472 349 3467 364Q3462 379 3446 387Q3430 395 3397 396Q3397 407 3399 416Q3401 425 3406 433Q3437 435 3477 445Q3517 455 3540 467Q3549 464 3556 454Q3562 445 3562 423Z"/>
  <path fill="#1e4b5b" transform="translate(100.0 518.4) scale(0.095000 -0.095000)" d="M-27 -3Q-27 8 -25 19Q-23 30 -19 40Q0 46 14 57Q28 68 44 90Q59 112 82 151Q120 216 158 282Q196 347 233 412Q270 478 307 544Q344 610 381 676Q390 680 401 681Q412 682 420 682Q446 591 470 500Q495 408 518 316Q542 224 564 132Q573 95 581 77Q589 59 599 52Q609 45 623 40Q626 29 626 18Q627 8 626 -3Q610 -1 590 0Q569 0 550 0Q530 0 515 0Q502 0 488 0Q475 0 460 0Q446 -1 431 -2Q416 -2 401 -3Q401 8 403 19Q405 30 409 40Q453 45 464 60Q475 76 464 122Q445 204 424 286Q404 367 381 447Q372 478 366 502Q361 527 355 563H362Q345 527 332 501Q318 475 299 440Q259 366 218 292Q176 217 132 143Q109 104 104 84Q98 63 110 54Q121 45 147 40Q149 30 150 19Q151 8 150 -3Q134 -1 119 0Q104 0 89 0Q74 0 58 0Q32 0 14 0Q-5 -1 -27 -3ZM161 215 183 265H446L449 219Q404 219 354 218Q303 218 253 218Q203 217 161 215Z M1095 467Q1101 465 1105 458Q1109 450 1108 430Q1106 411 1097 371L1047 147Q1036 92 1036 76Q1037 60 1053 60Q1065 60 1078 67Q1090 74 1109 90Q1116 83 1120 76Q1124 68 1127 59Q1102 31 1073 11Q1044 -9 1011 -9Q983 -9 969 5Q955 19 950 40Q946 61 949 84Q952 106 958 123Q962 133 968 149Q975 165 982 181Q989 197 993 205L1029 346L1032 458Q1048 457 1066 460Q1084 462 1095 467ZM1047 454 1030 400Q1015 408 996 412Q977 416 957 416Q896 416 860 369Q825 322 810 248Q792 163 800 118Q809 72 839 72Q857 72 888 104Q919 135 950 194Q982 254 1001 336L1020 416L1067 409L1012 196H986Q968 146 936 98Q904 51 864 21Q825 -9 783 -9Q758 -9 740 3Q722 15 712 41Q702 67 702 107Q702 147 713 202Q729 279 768 339Q806 399 862 433Q917 467 982 467Q999 467 1018 463Q1037 459 1047 454Z M1369 -3Q1369 8 1370 19Q1372 30 1376 40Q1406 44 1422 53Q1437 62 1445 83Q1453 104 1459 143L1528 540Q1535 577 1532 596Q1528 616 1513 624Q1498 633 1469 636Q1468 646 1468 656Q1467 667 1468 679Q1497 678 1523 678Q1549 677 1572 676Q1594 676 1612 676Q1631 676 1644 676L1553 143Q1546 101 1549 80Q1552 59 1570 52Q1589 45 1626 45L1620 0Q1584 0 1551 0Q1518 0 1488 0Q1457 -1 1428 -2Q1398 -2 1369 -3ZM1828 -3Q1799 -1 1768 0Q1737 0 1701 0Q1665 0 1620 0L1626 45H1645Q1707 45 1741 60Q1775 75 1796 104Q1817 132 1837 172Q1851 170 1862 165Q1873 160 1882 150Q1866 119 1852 80Q1837 41 1828 -3ZM1788 221Q1774 223 1762 226Q1751 228 1742 234Q1745 268 1737 286Q1729 304 1706 312Q1684 319 1643 319H1574L1582 364H1647Q1709 364 1737 380Q1765 397 1773 446Q1786 448 1797 448Q1808 449 1821 447Q1815 422 1810 398Q1805 375 1800 336Q1795 300 1792 273Q1790 246 1788 221ZM1865 509Q1864 552 1856 579Q1847 606 1818 618Q1788 631 1723 631H1616L1644 676Q1690 676 1734 676Q1778 676 1824 677Q1871 678 1922 679Q1918 642 1916 596Q1913 551 1915 516Q1896 508 1865 509Z M2055 -9Q2012 -9 1988 12Q1963 33 1952 67Q1942 101 1943 142Q1944 182 1952 221Q1969 305 2005 360Q2041 414 2086 440Q2132 467 2177 467Q2216 467 2240 450Q2263 434 2271 408Q2279 383 2273 356Q2266 323 2240 296Q2214 268 2178 248Q2143 228 2105 216Q2067 205 2035 203L2038 240Q2094 244 2138 270Q2182 296 2192 343Q2198 374 2187 395Q2176 416 2151 416Q2119 416 2088 373Q2058 330 2043 241Q2036 200 2037 158Q2038 117 2054 90Q2070 63 2108 63Q2132 63 2158 76Q2184 89 2209 119Q2217 114 2222 107Q2227 100 2230 90Q2199 48 2155 20Q2111 -9 2055 -9Z M2865 679Q2928 679 2975 658Q3022 637 3044 596Q3067 555 3055 493Q3047 449 3022 414Q2997 379 2954 355Q2910 331 2843 319L2766 305Q2748 304 2732 304Q2716 305 2704 306L2708 354Q2722 352 2734 352Q2746 351 2757 351Q2816 351 2857 368Q2898 385 2922 416Q2947 446 2955 487Q2970 563 2936 600Q2901 636 2839 636Q2822 636 2800 634Q2777 631 2759 626L2766 644L2677 122Q2672 89 2674 72Q2676 56 2689 50Q2702 44 2726 40Q2728 30 2728 19Q2729 8 2728 -3Q2703 -1 2685 0Q2667 0 2650 0Q2634 0 2612 0Q2578 0 2552 0Q2526 -1 2497 -3Q2497 8 2499 19Q2501 30 2505 40Q2534 43 2549 52Q2564 61 2572 80Q2579 99 2585 132L2658 554Q2663 583 2659 600Q2655 617 2640 625Q2625 633 2597 636Q2595 647 2595 658Q2595 668 2596 679Q2633 677 2661 676Q2689 676 2724 676Q2762 676 2802 678Q2843 679 2865 679ZM2826 344Q2848 318 2864 294Q2880 269 2896 236Q2913 204 2933 152Q2950 110 2966 92Q2982 74 2995 74Q3005 74 3012 77Q3019 80 3029 90Q3039 85 3046 77Q3054 69 3059 58Q3033 26 3006 8Q2980 -9 2943 -9Q2915 -9 2897 6Q2879 21 2867 49Q2855 77 2843 116Q2828 165 2812 203Q2796 241 2778 273Q2759 305 2737 336Z M3296 467Q3312 462 3316 446Q3321 431 3316 403Q3312 378 3300 345Q3289 312 3272 271H3274L3291 308Q3314 355 3336 391Q3357 427 3381 447Q3405 467 3434 467Q3463 467 3485 449Q3476 421 3470 391Q3464 361 3461 333Q3452 329 3440 326Q3427 324 3412 325Q3414 360 3411 372Q3408 383 3401 383Q3391 383 3372 364Q3354 344 3329 297Q3313 266 3290 210Q3268 153 3256 89L3239 0H3147L3203 291Q3212 338 3212 358Q3213 378 3200 383Q3186 388 3154 388Q3154 399 3156 409Q3157 419 3161 426Q3177 428 3204 434Q3230 441 3256 450Q3282 460 3296 467Z"/>
  <path fill="#b21939" transform="translate(100.0 625.4) scale(0.090000 -0.090000)" d="M210 133Q203 92 206 72Q210 53 228 48Q247 42 283 42Q348 42 394 76Q440 110 450 165Q468 255 426 293Q385 331 269 331H232L240 376H281Q362 376 408 410Q453 445 464 502Q478 570 444 603Q409 636 342 636Q330 636 316 634Q301 632 283 627L298 643ZM238 676Q274 676 310 678Q346 679 380 679Q450 679 496 662Q542 646 560 609Q579 572 568 512Q558 456 511 416Q464 375 397 366Q492 361 535 313Q578 265 559 170Q549 119 514 80Q479 42 423 21Q367 0 293 0Q255 0 208 0Q160 0 112 0Q65 -1 25 -3Q26 11 28 22Q30 32 33 40Q64 45 80 54Q95 63 103 84Q111 104 117 143L189 554Q195 588 190 604Q186 621 171 628Q156 634 130 636Q128 647 128 657Q127 667 128 679Q163 677 187 676Q211 676 238 676Z M729 -9Q695 -9 678 12Q662 33 658 68Q655 102 661 144Q667 185 677 225Q692 285 698 318Q705 352 702 366Q699 381 686 384Q673 388 648 388Q647 397 648 408Q649 418 653 426Q668 428 694 434Q721 441 747 450Q773 460 786 467Q797 460 802 452Q808 443 806 420Q805 397 794 350Q784 302 764 218Q752 168 750 134Q747 99 756 82Q764 65 781 65Q800 65 833 94Q866 124 899 184Q932 245 949 337L972 458H1063L1014 210Q1000 140 995 108Q990 76 994 68Q997 60 1008 60Q1026 60 1057 91Q1064 85 1068 76Q1073 68 1076 59Q1052 31 1022 11Q991 -9 964 -9Q934 -9 918 6Q902 20 898 45Q895 70 901 103Q903 115 907 127Q911 139 917 151H915Q903 126 884 98Q864 71 839 46Q814 22 786 6Q758 -9 729 -9Z M1261 -9Q1219 -9 1196 12Q1174 34 1171 79Q1168 124 1184 196L1244 458Q1255 504 1262 540Q1269 575 1270 596Q1290 599 1312 606Q1335 612 1349 620Q1357 616 1360 606Q1363 596 1360 572Q1357 547 1345 497L1276 203Q1264 148 1264 115Q1263 82 1273 68Q1283 53 1299 53Q1316 53 1336 66Q1357 79 1373 98Q1381 94 1387 84Q1393 75 1394 66Q1381 49 1360 32Q1338 14 1313 2Q1288 -9 1261 -9ZM1240 402Q1221 404 1199 406Q1177 409 1157 409Q1157 420 1160 430Q1163 441 1168 448H1248ZM1316 401 1324 448H1447Q1447 438 1446 428Q1444 417 1440 409Q1396 409 1366 406Q1336 404 1316 401Z M1583 -9Q1541 -9 1518 12Q1496 34 1493 79Q1490 124 1506 196L1566 458Q1577 504 1584 540Q1591 575 1592 596Q1612 599 1634 606Q1657 612 1671 620Q1679 616 1682 606Q1685 596 1682 572Q1679 547 1667 497L1598 203Q1586 148 1586 115Q1585 82 1595 68Q1605 53 1621 53Q1638 53 1658 66Q1679 79 1695 98Q1703 94 1709 84Q1715 75 1716 66Q1703 49 1682 32Q1660 14 1635 2Q1610 -9 1583 -9ZM1562 402Q1543 404 1521 406Q1499 409 1479 409Q1479 420 1482 430Q1485 441 1490 448H1570ZM1638 401 1646 448H1769Q1769 438 1768 428Q1766 417 1762 409Q1718 409 1688 406Q1658 404 1638 401Z M1885 -9Q1842 -9 1818 12Q1793 33 1782 67Q1772 101 1773 142Q1774 182 1782 221Q1799 305 1835 360Q1871 414 1916 440Q1962 467 2007 467Q2046 467 2070 450Q2093 434 2101 408Q2109 383 2103 356Q2096 323 2070 296Q2044 268 2008 248Q1973 228 1935 216Q1897 205 1865 203L1868 240Q1924 244 1968 270Q2012 296 2022 343Q2028 374 2017 395Q2006 416 1981 416Q1949 416 1918 373Q1888 330 1873 241Q1866 200 1867 158Q1868 117 1884 90Q1900 63 1938 63Q1962 63 1988 76Q2014 89 2039 119Q2047 114 2052 107Q2057 100 2060 90Q2029 48 1985 20Q1941 -9 1885 -9Z M2306 467Q2322 462 2326 446Q2331 431 2326 403Q2322 378 2310 345Q2299 312 2282 271H2284L2301 308Q2324 355 2346 391Q2367 427 2391 447Q2415 467 2444 467Q2473 467 2495 449Q2486 421 2480 391Q2474 361 2471 333Q2462 329 2450 326Q2437 324 2422 325Q2424 360 2421 372Q2418 383 2411 383Q2401 383 2382 364Q2364 344 2339 297Q2323 266 2300 210Q2278 153 2266 89L2249 0H2157L2213 291Q2222 338 2222 358Q2223 378 2210 383Q2196 388 2164 388Q2164 399 2166 409Q2167 419 2171 426Q2187 428 2214 434Q2240 441 2266 450Q2292 460 2306 467Z"/>
  <path fill="#193e4c" transform="translate(100.0 879.8) scale(0.075000 -0.075000)" d="M343 -9Q332 -4 326 9Q319 22 319 50Q319 59 320 72Q321 84 324 94H326Q323 78 312 60Q302 41 285 27Q268 12 242 2Q216 -7 179 -7Q116 -7 83 22Q50 50 50 99Q50 138 68 166Q87 193 116 212Q146 230 180 241Q215 252 248 258Q281 264 306 268Q306 309 304 332Q303 355 298 368Q294 382 285 392Q273 407 258 414Q242 422 223 422Q190 422 171 402Q152 381 144 354Q136 327 135 306Q124 306 108 308Q91 309 83 313Q85 338 84 369Q83 400 78 422Q119 443 164 455Q210 467 248 467Q285 467 312 456Q338 446 354 429Q380 404 388 364Q396 323 396 256V146Q396 118 400 102Q405 85 418 78Q431 70 458 68Q458 58 457 46Q456 33 452 22Q427 21 396 12Q366 4 343 -9ZM207 48Q229 48 252 62Q275 77 290 108Q306 139 306 189V227Q281 224 253 218Q225 213 201 202Q177 191 162 172Q147 152 147 119Q147 82 165 65Q183 48 207 48Z M859 86Q879 65 902 51Q926 37 961 37Q982 37 1006 46Q1031 54 1054 75Q1077 96 1092 134Q1106 172 1106 232Q1106 296 1087 334Q1068 371 1042 388Q1016 404 994 404Q965 404 937 386Q909 367 891 325Q873 283 873 213V54ZM956 -9Q911 -9 874 0Q837 9 809 24Q781 40 761 59Q772 73 778 100Q783 127 783 186V575Q783 599 778 614Q774 630 758 638Q742 646 708 646Q708 657 710 666Q712 675 717 683Q732 683 760 688Q787 693 813 701Q839 709 851 717Q860 714 866 705Q873 696 873 677V416Q873 398 871 386Q869 373 867 362L863 273L844 319Q857 351 866 368Q876 385 881 393Q890 408 910 426Q929 443 957 455Q985 467 1018 467Q1077 467 1118 444Q1160 420 1182 371Q1205 322 1205 245Q1205 175 1174 118Q1143 60 1087 26Q1031 -9 956 -9Z M1857 78Q1830 35 1790 13Q1750 -9 1693 -9Q1642 -9 1594 18Q1547 44 1516 96Q1485 149 1485 227Q1485 287 1509 342Q1533 397 1580 432Q1626 467 1693 467Q1739 467 1778 456Q1816 445 1844 422Q1840 393 1838 365Q1837 337 1837 308Q1829 304 1816 302Q1802 300 1791 300Q1785 358 1757 389Q1729 420 1685 420Q1636 420 1607 374Q1578 328 1578 242Q1578 192 1594 148Q1611 103 1643 76Q1675 48 1721 48Q1753 48 1782 63Q1810 78 1832 106Q1840 102 1847 94Q1854 87 1857 78Z M2381 467Q2410 467 2432 462Q2453 457 2478 449V372Q2458 393 2434 407Q2411 421 2376 421Q2355 421 2330 412Q2306 404 2283 383Q2260 362 2246 324Q2231 286 2231 226Q2231 162 2250 124Q2269 87 2295 70Q2321 54 2343 54Q2373 54 2400 72Q2428 91 2446 133Q2464 175 2464 245L2493 139Q2480 107 2470 90Q2461 73 2456 65Q2447 50 2428 33Q2408 16 2380 4Q2353 -9 2319 -9Q2261 -9 2219 14Q2177 38 2154 87Q2132 136 2132 213Q2132 283 2163 340Q2194 398 2250 432Q2306 467 2381 467ZM2554 136Q2554 113 2558 98Q2562 82 2576 75Q2589 68 2616 68Q2616 58 2615 46Q2614 33 2610 22Q2585 21 2552 12Q2519 4 2496 -9Q2486 -4 2478 6Q2471 15 2471 49Q2471 69 2474 84Q2478 100 2485 136ZM2554 575V127H2464V575ZM2532 717Q2541 714 2548 705Q2554 696 2554 677V538H2464V575Q2464 599 2460 614Q2455 630 2439 638Q2423 646 2389 646Q2389 657 2391 666Q2393 675 2398 683Q2413 683 2440 688Q2467 693 2494 701Q2520 709 2532 717Z M3108 -9Q3037 -9 2990 23Q2943 55 2920 110Q2896 164 2896 229Q2896 293 2921 347Q2946 401 2992 434Q3039 467 3103 467Q3168 467 3208 439Q3247 411 3266 364Q3286 317 3290 260Q3286 240 3275 226Q3258 226 3224 226Q3190 226 3147 226Q3104 225 3059 224Q3014 222 2974 220V271H3186Q3186 337 3162 378Q3138 419 3094 419Q3070 419 3047 404Q3024 390 3009 354Q2994 317 2994 250Q2994 201 3006 154Q3019 108 3050 78Q3082 47 3140 47Q3173 47 3205 62Q3237 77 3262 105Q3270 101 3278 92Q3285 82 3286 74Q3252 29 3208 10Q3163 -9 3108 -9Z M3838 448Q3838 438 3836 426Q3834 413 3828 403Q3799 403 3774 400Q3748 396 3727 389V448ZM3646 488Q3646 563 3676 614Q3707 664 3755 689Q3803 714 3855 714Q3894 714 3914 706Q3934 699 3950 689Q3948 658 3947 628Q3946 599 3946 572Q3933 568 3918 566Q3903 564 3889 564Q3889 605 3871 632Q3853 659 3811 659Q3784 659 3768 642Q3751 626 3744 595Q3736 564 3736 519V222H3646ZM3661 448V391Q3636 398 3610 400Q3584 403 3566 403Q3566 416 3570 427Q3573 438 3580 448ZM3736 147Q3736 104 3745 82Q3754 59 3774 50Q3794 42 3825 40Q3828 32 3829 22Q3830 11 3830 -3Q3815 -2 3794 -2Q3774 -1 3751 0Q3728 0 3704 0Q3669 0 3630 0Q3592 -1 3572 -3Q3572 11 3573 22Q3574 32 3577 40Q3604 42 3619 50Q3634 57 3640 76Q3646 94 3646 127V227H3736Z M4287 -249Q4226 -249 4188 -234Q4149 -218 4131 -188Q4113 -158 4113 -114Q4113 -76 4134 -48Q4154 -20 4191 -4L4241 -8Q4217 -26 4208 -46Q4199 -66 4199 -93Q4199 -144 4224 -170Q4250 -196 4311 -196Q4377 -196 4414 -163Q4452 -130 4452 -87Q4452 -61 4440 -46Q4427 -31 4392 -24Q4356 -17 4287 -17Q4242 -17 4214 -12Q4185 -8 4168 2Q4152 13 4146 29Q4139 45 4139 68Q4139 101 4158 132Q4178 164 4209 189L4246 163Q4226 146 4218 131Q4209 116 4209 105Q4209 87 4218 78Q4228 69 4259 66Q4290 63 4354 63Q4421 63 4460 52Q4500 41 4518 17Q4535 -7 4535 -48Q4535 -82 4516 -118Q4498 -153 4465 -182Q4432 -212 4386 -230Q4341 -249 4287 -249ZM4311 139Q4264 139 4222 157Q4180 175 4154 211Q4129 247 4129 301Q4129 347 4149 384Q4169 422 4210 444Q4250 467 4309 467Q4359 467 4394 450Q4428 434 4450 408Q4472 383 4482 356Q4492 328 4492 307Q4492 261 4472 222Q4451 184 4410 162Q4370 139 4311 139ZM4323 185Q4356 185 4377 212Q4398 240 4398 292Q4398 345 4372 384Q4346 422 4299 422Q4259 422 4240 388Q4221 355 4221 314Q4221 252 4248 218Q4275 185 4323 185ZM4543 396Q4527 400 4504 404Q4482 408 4460 411Q4439 414 4424 415L4354 458H4536Q4540 445 4542 428Q4543 412 4543 396Z M5279 127Q5279 75 5294 58Q5308 40 5338 40Q5341 31 5342 21Q5343 11 5343 -3Q5321 -1 5293 0Q5265 0 5234 0Q5214 0 5192 0Q5170 -1 5150 -2Q5131 -2 5115 -3Q5115 11 5116 22Q5117 32 5120 40Q5156 40 5172 58Q5189 77 5189 127V279Q5189 350 5163 376Q5137 401 5096 401Q5070 401 5044 384Q5018 368 5000 332Q4983 295 4983 234V127Q4983 77 4998 58Q5013 40 5052 40Q5055 31 5056 21Q5057 11 5057 -3Q5043 -2 5023 -2Q5003 -1 4981 0Q4959 0 4938 0Q4918 0 4896 0Q4874 -1 4854 -2Q4834 -2 4819 -3Q4819 11 4820 22Q4821 32 4824 40Q4863 40 4878 58Q4893 77 4893 127V325L4983 423Q4983 411 4982 396Q4981 381 4976 364Q4979 369 4982 376Q4985 382 4991 390Q5008 413 5046 438Q5083 462 5136 462Q5174 462 5206 446Q5239 431 5259 396Q5279 360 5279 299ZM4893 575Q4893 599 4888 614Q4884 630 4868 638Q4852 646 4818 646Q4818 657 4820 666Q4822 675 4827 683Q4842 683 4870 688Q4897 693 4923 701Q4949 709 4961 717Q4970 714 4976 705Q4983 696 4983 677V538H4893ZM4893 575H4983V423L4893 310Z M5616 -3Q5616 7 5617 18Q5618 30 5621 40Q5661 40 5676 58Q5690 77 5690 127V325Q5690 349 5686 364Q5681 380 5665 388Q5649 396 5615 396Q5615 407 5617 416Q5619 425 5624 433Q5639 433 5666 438Q5694 443 5720 451Q5746 459 5758 467Q5767 464 5774 455Q5780 446 5780 427V127Q5780 77 5794 58Q5807 40 5839 40Q5842 30 5843 17Q5844 4 5844 -3Q5827 -2 5808 -2Q5789 -1 5770 0Q5750 0 5731 0Q5712 0 5692 0Q5671 -1 5652 -2Q5633 -2 5616 -3ZM5727 580Q5702 580 5685 597Q5668 614 5668 638Q5668 665 5686 682Q5704 699 5727 699Q5754 699 5770 682Q5787 665 5787 638Q5787 615 5770 598Q5752 580 5727 580Z M6115 -249Q6108 -245 6102 -238Q6095 -231 6093 -221Q6132 -177 6153 -142Q6174 -106 6182 -68Q6191 -30 6191 19V325Q6191 349 6186 364Q6182 380 6166 388Q6150 396 6116 396Q6116 407 6118 416Q6120 425 6125 433Q6140 433 6168 438Q6195 443 6221 451Q6247 459 6259 467Q6268 464 6274 455Q6281 446 6281 427V33Q6281 -21 6266 -66Q6252 -110 6228 -145Q6204 -180 6174 -206Q6145 -232 6115 -249ZM6228 580Q6203 580 6186 597Q6169 614 6169 638Q6169 665 6187 682Q6205 699 6228 699Q6255 699 6272 682Q6288 665 6288 638Q6288 615 6270 598Q6253 580 6228 580Z M6599 -3Q6599 7 6600 18Q6601 30 6604 40Q6644 40 6658 58Q6673 77 6673 127V575Q6673 599 6668 614Q6664 630 6648 638Q6632 646 6598 646Q6598 657 6600 666Q6602 675 6607 683Q6622 683 6650 688Q6677 693 6703 701Q6729 709 6741 717Q6750 714 6756 705Q6763 696 6763 677V127Q6763 77 6776 58Q6790 40 6822 40Q6825 30 6826 17Q6827 4 6827 -3Q6801 -1 6772 0Q6743 0 6714 0Q6695 0 6674 0Q6654 -1 6635 -2Q6616 -2 6599 -3ZM6955 -9Q6938 17 6914 49Q6890 81 6862 116Q6834 150 6804 182Q6775 215 6748 241L6837 323Q6871 354 6886 374Q6901 393 6901 403Q6901 411 6894 415Q6886 419 6872 419Q6869 429 6868 439Q6866 449 6866 460Q6888 459 6906 458Q6925 458 6941 458Q6957 458 6970 458Q6987 458 7012 458Q7037 459 7064 460Q7064 450 7062 438Q7061 427 7057 418Q7038 418 7020 412Q7001 406 6980 393Q6960 380 6935 357L6825 257L6823 289Q6858 253 6895 212Q6932 170 6984 106Q7004 82 7018 69Q7033 56 7049 50Q7065 45 7088 43Q7088 29 7087 18Q7086 8 7083 0Q7059 0 7038 -1Q7017 -2 6997 -4Q6977 -5 6955 -9Z M7344 -3Q7344 7 7345 18Q7346 30 7349 40Q7389 40 7404 58Q7418 77 7418 127V575Q7418 599 7414 614Q7409 630 7393 638Q7377 646 7343 646Q7343 657 7345 666Q7347 675 7352 683Q7367 683 7394 688Q7422 693 7448 701Q7474 709 7486 717Q7495 714 7502 705Q7508 696 7508 677V127Q7508 77 7522 58Q7535 40 7567 40Q7570 30 7571 17Q7572 4 7572 -3Q7555 -2 7536 -2Q7517 -1 7498 0Q7478 0 7459 0Q7440 0 7420 0Q7399 -1 7380 -2Q7361 -2 7344 -3Z M7844 -3Q7844 11 7845 22Q7846 32 7849 40Q7889 42 7904 60Q7918 77 7918 127V325Q7918 349 7913 364Q7908 379 7892 387Q7876 395 7843 396Q7843 407 7845 416Q7847 425 7852 433Q7869 434 7894 440Q7920 445 7944 452Q7968 460 7981 467Q7990 464 7996 455Q8003 446 8003 427Q8003 411 8002 390Q8000 369 7995 328L7985 327Q7999 365 8006 378Q8012 391 8015 395Q8031 418 8068 442Q8106 467 8158 467Q8200 467 8235 448Q8270 429 8286 383Q8290 371 8290 350H8287Q8296 375 8307 390Q8324 413 8361 438Q8398 462 8450 462Q8488 462 8520 446Q8552 431 8572 396Q8591 360 8591 299V127Q8591 93 8598 74Q8604 56 8618 49Q8631 42 8651 40Q8654 31 8655 21Q8656 11 8656 -3Q8634 -1 8606 0Q8577 0 8547 0Q8527 0 8506 0Q8485 -1 8465 -2Q8445 -2 8428 -3Q8428 11 8429 22Q8430 32 8433 40Q8460 42 8475 50Q8490 57 8496 76Q8502 94 8502 127V279Q8502 350 8476 376Q8451 401 8410 401Q8385 401 8359 384Q8333 368 8316 332Q8299 295 8299 234V127Q8299 75 8315 58Q8331 42 8369 40Q8372 31 8373 21Q8374 11 8374 -3Q8349 -1 8316 0Q8284 0 8255 0Q8226 0 8194 0Q8163 -1 8136 -3Q8136 11 8137 22Q8138 32 8141 40Q8168 42 8183 50Q8198 57 8204 76Q8210 94 8210 127V284Q8210 355 8184 380Q8159 406 8118 406Q8093 406 8067 390Q8041 373 8024 336Q8007 300 8007 239V127Q8007 77 8022 60Q8037 42 8077 40Q8080 31 8081 21Q8082 11 8082 -3Q8065 -2 8044 -2Q8023 -1 8002 0Q7981 0 7963 0Q7946 0 7924 0Q7902 -1 7881 -2Q7860 -2 7844 -3Z"/>
  <path fill="#193e4c" transform="translate(100.0 965.9) scale(0.075000 -0.075000)" d="M111 214V325Q111 349 106 364Q101 379 85 387Q69 395 36 396Q36 407 38 416Q40 425 45 433Q76 435 116 445Q156 455 179 467Q188 464 194 454Q201 445 201 423ZM497 127Q497 75 512 58Q526 40 556 40Q559 31 560 21Q561 11 561 -3Q539 -1 511 0Q483 0 452 0Q432 0 410 0Q388 -1 368 -2Q349 -2 333 -3Q333 11 334 22Q335 32 338 40Q374 40 390 58Q407 77 407 127V279Q407 350 381 376Q355 401 314 401Q288 401 262 384Q236 368 218 332Q201 295 201 234V127Q201 77 216 58Q231 40 270 40Q273 31 274 21Q275 11 275 -3Q261 -2 241 -2Q221 -1 199 0Q177 0 156 0Q136 0 114 0Q92 -1 72 -2Q52 -2 37 -3Q37 11 38 22Q39 32 42 40Q81 40 96 58Q111 77 111 127V325L201 423Q201 411 200 396Q199 381 194 364Q197 369 200 376Q203 382 209 390Q226 413 264 438Q301 462 354 462Q392 462 424 446Q457 431 477 396Q497 360 497 299Z M1063 -9Q995 -9 944 20Q893 50 865 104Q837 157 837 229Q837 297 866 351Q895 405 946 436Q997 467 1063 467Q1134 467 1184 437Q1235 407 1262 354Q1289 300 1289 229Q1289 161 1260 107Q1232 53 1182 22Q1131 -9 1063 -9ZM1071 39Q1131 39 1160 88Q1189 138 1189 217Q1189 279 1170 324Q1152 370 1121 394Q1090 419 1053 419Q995 419 966 372Q938 325 938 250Q938 183 954 136Q971 88 1001 64Q1031 39 1071 39Z M1566 -245Q1566 -231 1567 -220Q1568 -210 1571 -202Q1598 -200 1613 -192Q1628 -185 1634 -166Q1640 -148 1640 -115V325Q1640 349 1635 364Q1630 379 1614 387Q1598 395 1565 396Q1565 407 1567 416Q1569 425 1574 433Q1605 435 1645 445Q1685 455 1708 467Q1717 464 1724 454Q1730 445 1730 423Q1730 400 1724 380Q1717 359 1706 325L1730 306V-95Q1730 -138 1739 -160Q1748 -183 1768 -192Q1788 -200 1819 -202Q1822 -210 1823 -220Q1824 -231 1824 -245Q1809 -244 1788 -244Q1768 -243 1745 -242Q1722 -242 1698 -242Q1663 -242 1624 -242Q1586 -243 1566 -245ZM1813 -9Q1785 -9 1764 -4Q1742 1 1716 9V86Q1736 65 1760 51Q1783 37 1818 37Q1839 37 1864 46Q1888 54 1911 75Q1934 96 1948 134Q1963 172 1963 232Q1963 285 1948 324Q1934 362 1908 383Q1883 404 1851 404Q1822 404 1794 386Q1766 367 1748 325Q1730 283 1730 213L1701 319Q1714 351 1724 368Q1733 385 1738 393Q1747 408 1766 426Q1786 443 1814 455Q1842 467 1875 467Q1934 467 1976 444Q2017 421 2040 374Q2062 327 2062 254Q2062 180 2031 120Q2000 60 1944 26Q1888 -9 1813 -9Z M2586 467Q2654 467 2704 449Q2753 431 2784 400L2674 386Q2663 398 2639 410Q2615 421 2590 421Q2525 421 2483 371Q2441 321 2441 227Q2441 165 2460 128Q2478 91 2506 76Q2535 60 2563 60Q2586 60 2612 76Q2638 92 2656 130Q2674 168 2674 233L2694 137Q2688 118 2678 96Q2669 75 2660 63Q2640 37 2603 18Q2566 -1 2526 -1Q2478 -1 2436 23Q2394 47 2368 95Q2342 143 2342 214Q2342 282 2372 340Q2403 397 2458 432Q2513 467 2586 467ZM2595 -202Q2627 -200 2644 -192Q2661 -185 2668 -166Q2674 -148 2674 -115V20Q2674 45 2678 71Q2682 97 2692 134L2674 137V400H2784Q2778 390 2774 376Q2769 362 2766 342Q2764 321 2764 291V-115Q2764 -148 2770 -166Q2776 -185 2792 -192Q2807 -200 2833 -202Q2836 -211 2837 -221Q2838 -231 2838 -245Q2819 -243 2782 -242Q2746 -242 2714 -242Q2693 -242 2670 -242Q2648 -243 2628 -244Q2607 -244 2590 -245Q2590 -231 2591 -220Q2592 -210 2595 -202Z M3249 147Q3249 104 3258 82Q3267 59 3287 50Q3307 42 3338 40Q3341 32 3342 22Q3343 11 3343 -3Q3328 -2 3308 -2Q3287 -1 3264 0Q3241 0 3217 0Q3182 0 3144 0Q3105 -1 3085 -3Q3085 11 3086 22Q3087 32 3090 40Q3117 42 3132 50Q3147 57 3153 76Q3159 94 3159 127V227H3249ZM3249 293V214H3159V325L3249 423Q3249 389 3243 362Q3237 334 3232 307ZM3227 301Q3238 329 3244 347Q3250 365 3257 377Q3279 412 3309 435Q3339 458 3378 458Q3416 458 3447 434Q3445 418 3443 397Q3441 376 3440 355Q3440 334 3440 316Q3431 313 3416 310Q3400 307 3383 307Q3381 355 3368 370Q3354 385 3334 385Q3317 385 3297 366Q3277 346 3263 314Q3249 282 3249 243ZM3159 214V325Q3159 349 3154 364Q3149 379 3133 387Q3117 395 3084 396Q3084 407 3086 416Q3088 425 3093 433Q3124 435 3164 445Q3204 455 3227 467Q3236 464 3242 454Q3249 445 3249 423Z M4022 432Q4021 408 4020 381Q4020 354 4024 328Q4014 322 4001 319Q3988 316 3974 316Q3972 344 3958 369Q3943 394 3919 410Q3895 426 3862 426Q3831 426 3812 411Q3794 396 3794 371Q3794 354 3802 341Q3809 328 3834 314Q3860 299 3913 278Q3967 258 3998 238Q4029 218 4042 193Q4055 168 4055 132Q4055 90 4031 58Q4007 26 3966 8Q3924 -9 3872 -9Q3812 -9 3776 0Q3741 10 3707 28Q3709 44 3710 67Q3710 90 3710 113Q3710 136 3708 152Q3716 158 3730 160Q3745 163 3760 163Q3768 100 3799 69Q3830 38 3882 38Q3923 38 3946 56Q3968 74 3968 102Q3968 120 3960 133Q3951 146 3928 159Q3905 172 3860 190Q3806 212 3774 231Q3741 250 3726 276Q3712 302 3712 342Q3712 374 3728 398Q3744 421 3770 436Q3795 452 3824 460Q3853 467 3878 467Q3923 467 3957 458Q3991 449 4022 432Z M4503 -9Q4444 -9 4416 22Q4387 52 4387 120V391Q4372 396 4356 400Q4340 403 4315 404Q4315 417 4317 426Q4319 436 4324 448H4387V580Q4407 585 4426 596Q4446 607 4461 620Q4471 616 4474 608Q4477 600 4477 568V448H4607Q4607 438 4605 426Q4603 415 4598 404Q4562 403 4532 400Q4502 396 4477 391V141Q4477 108 4484 86Q4491 65 4504 55Q4517 45 4535 45Q4556 45 4572 51Q4587 57 4601 69Q4614 54 4616 36Q4600 17 4568 4Q4535 -9 4503 -9Z M5071 -4Q5004 -4 4966 35Q4928 74 4928 174V325Q4928 360 4918 378Q4908 395 4862 396Q4862 407 4864 416Q4865 424 4869 433Q4900 435 4936 445Q4973 455 4996 467Q5005 464 5012 454Q5018 445 5018 423V196Q5018 129 5036 93Q5055 57 5101 57Q5151 57 5184 99Q5218 141 5218 228V330Q5218 365 5206 382Q5193 400 5143 401Q5143 412 5144 420Q5145 429 5150 438Q5189 440 5226 448Q5264 457 5286 467Q5295 464 5302 454Q5308 445 5308 423V133L5230 96Q5225 83 5216 70Q5207 58 5196 47Q5170 21 5141 8Q5112 -4 5071 -4ZM5250 -9Q5240 -4 5232 6Q5225 15 5225 49Q5225 60 5226 80Q5228 100 5235 136H5308Q5308 113 5312 98Q5316 82 5330 75Q5343 68 5370 68Q5370 58 5369 46Q5368 33 5364 22Q5339 21 5306 12Q5273 4 5250 -9Z M5853 -9Q5845 11 5828 50Q5812 88 5792 135Q5771 182 5750 228Q5730 273 5714 308Q5699 342 5693 355Q5680 382 5671 394Q5662 407 5654 412Q5645 417 5631 418Q5627 431 5626 439Q5625 447 5625 461Q5646 460 5672 459Q5699 458 5730 458Q5751 458 5774 458Q5796 459 5816 460Q5837 460 5853 461Q5853 450 5851 440Q5849 429 5846 420Q5796 416 5787 404Q5778 392 5797 351Q5804 336 5817 306Q5830 275 5846 236Q5862 197 5878 158Q5894 118 5906 86H5895Q5921 151 5942 203Q5963 255 5981 300Q6007 365 5996 390Q5986 416 5948 419Q5943 429 5940 440Q5937 451 5937 461Q5957 460 5982 459Q6007 458 6030 458Q6053 458 6079 459Q6105 460 6123 461Q6123 448 6121 438Q6119 427 6114 418Q6098 415 6086 404Q6074 393 6062 371Q6051 349 6034 309L5899 0Q5890 -4 5878 -6Q5865 -9 5853 -9Z M6553 -9Q6536 39 6520 86Q6503 132 6486 178Q6468 223 6450 268Q6433 313 6415 358Q6404 386 6392 398Q6381 410 6359 417Q6355 427 6354 439Q6353 451 6353 460Q6373 459 6396 458Q6418 458 6451 458Q6484 458 6510 459Q6536 460 6561 461Q6561 451 6560 438Q6559 425 6556 417Q6528 414 6516 407Q6505 400 6506 388Q6506 376 6513 357Q6536 299 6561 230Q6586 161 6606 102L6593 101L6731 458Q6739 460 6750 461Q6761 462 6771 462Q6804 386 6844 290Q6883 194 6920 99H6906L6969 288Q6985 337 6984 364Q6982 390 6968 402Q6954 414 6929 417Q6925 428 6922 440Q6920 451 6920 461Q6939 460 6963 459Q6987 458 7009 458Q7036 458 7058 459Q7080 460 7097 461Q7097 448 7096 438Q7094 428 7089 417Q7074 413 7064 402Q7053 392 7042 366Q7032 340 7015 291L6914 0Q6908 -3 6901 -5Q6894 -7 6886 -8Q6878 -9 6868 -9Q6845 51 6818 114Q6792 178 6766 240Q6740 302 6715 357L6746 374L6597 0Q6592 -3 6586 -5Q6580 -7 6572 -8Q6564 -9 6553 -9Z M7564 198 7515 126Q7484 80 7490 60Q7495 40 7524 40Q7527 33 7528 21Q7530 9 7530 -2Q7502 0 7471 0Q7440 0 7425 0Q7414 0 7394 0Q7373 0 7342 -2Q7342 9 7343 20Q7344 32 7348 40Q7366 41 7382 48Q7398 56 7416 75Q7435 94 7460 129L7533 231ZM7614 102Q7601 123 7585 146Q7569 170 7552 194L7537 216Q7515 248 7493 278Q7471 308 7454 331Q7426 369 7410 388Q7394 406 7383 412Q7372 419 7356 420Q7352 428 7350 438Q7349 449 7349 460Q7371 459 7398 458Q7425 458 7454 458Q7483 458 7514 458Q7544 459 7569 460Q7569 450 7568 439Q7566 428 7564 420Q7529 419 7524 404Q7518 389 7549 346Q7558 334 7572 316Q7585 298 7601 276L7613 260Q7639 225 7666 188Q7694 151 7713 122Q7735 91 7749 73Q7763 55 7774 48Q7786 41 7799 40Q7803 30 7804 20Q7804 11 7804 -2Q7773 0 7749 0Q7725 0 7699 0Q7686 0 7672 0Q7658 0 7644 0Q7629 0 7614 0Q7599 -1 7584 -2Q7584 11 7584 21Q7585 31 7588 40Q7623 41 7630 54Q7637 68 7614 102ZM7579 261 7634 346Q7660 386 7658 402Q7656 419 7623 420Q7619 429 7618 440Q7617 450 7617 460Q7636 459 7656 458Q7676 458 7706 458Q7736 458 7755 458Q7774 459 7790 460Q7790 450 7788 439Q7786 428 7784 420Q7769 419 7757 414Q7745 409 7732 394Q7718 380 7697 351L7609 227Z M8412 298Q8438 362 8424 386Q8411 409 8367 417Q8363 428 8362 438Q8360 449 8360 460Q8383 459 8407 458Q8431 458 8459 458Q8487 458 8512 458Q8537 459 8559 460Q8559 450 8558 439Q8558 428 8553 417Q8535 413 8522 403Q8510 393 8499 372Q8488 351 8472 313L8325 -37Q8297 -105 8274 -147Q8252 -189 8232 -211Q8213 -233 8194 -241Q8174 -249 8151 -249Q8121 -249 8104 -241Q8086 -233 8076 -226Q8072 -211 8073 -188Q8074 -166 8077 -153Q8094 -156 8110 -158Q8126 -159 8141 -159Q8170 -159 8196 -145Q8223 -131 8242 -100Q8256 -79 8284 -18Q8312 44 8343 124ZM8295 -21Q8271 32 8244 90Q8218 149 8194 203Q8170 257 8152 294Q8129 344 8114 369Q8098 394 8084 404Q8071 414 8054 417Q8051 426 8050 437Q8048 448 8048 460Q8077 459 8106 458Q8135 458 8161 458Q8187 458 8225 458Q8263 459 8294 460Q8294 447 8292 436Q8291 426 8287 417Q8233 408 8225 386Q8217 363 8244 307Q8258 278 8276 238Q8294 197 8311 156Q8328 116 8340 85Z M8841 -2Q8834 5 8830 16Q8825 26 8825 38Q8846 67 8876 108Q8905 150 8938 196Q8971 243 9002 288Q9034 332 9059 368Q9084 405 9097 426L9117 414H8997Q8961 414 8940 406Q8919 398 8908 375Q8896 352 8886 308Q8874 308 8860 310Q8845 312 8834 316Q8837 349 8839 386Q8841 423 8841 461Q8862 460 8893 460Q8924 459 8959 458Q8994 458 9024 458Q9054 458 9088 458Q9121 459 9152 460Q9182 460 9201 461Q9208 453 9211 441Q9214 429 9214 418Q9188 381 9151 329Q9114 277 9074 222Q9034 166 8998 116Q8961 66 8935 33L8927 45H9071Q9107 45 9127 53Q9147 61 9156 84Q9166 108 9169 156Q9181 156 9194 155Q9207 154 9222 150Q9222 134 9223 110Q9224 85 9226 60Q9227 35 9230 17Q9221 -2 9198 -2Q9173 -1 9148 -1Q9124 -1 9094 0Q9063 0 9019 0Q8953 0 8910 0Q8868 -1 8841 -2Z"/>
  <path fill="#193e4c" transform="translate(428.4 1073.0) scale(0.068000 -0.068000)" d="M239 127Q239 94 245 76Q251 57 266 49Q282 41 308 40Q311 30 312 19Q313 8 313 -3Q298 -2 282 -2Q265 -1 248 0Q232 0 218 0Q203 0 194 0Q181 0 166 0Q150 0 134 0Q119 -1 104 -2Q89 -2 75 -3Q75 8 76 19Q77 30 80 40Q105 41 120 49Q135 57 142 76Q149 94 149 127V373Q149 406 143 424Q137 442 122 450Q108 459 80 460Q78 469 76 480Q75 492 75 503Q87 502 102 502Q118 501 134 500Q151 500 166 500Q182 500 194 500Q215 500 236 500Q258 501 278 502Q297 502 313 503Q313 490 312 480Q310 469 308 460Q282 459 266 450Q251 442 245 424Q239 406 239 373Z M851 506Q897 506 935 494Q973 481 996 452Q1018 424 1018 374Q1018 343 1007 318Q996 293 972 267Q948 241 908 204Q880 179 849 150Q818 120 774 78L759 90H932Q960 90 974 94Q989 97 995 110Q1001 123 1002 151Q1016 151 1028 150Q1039 148 1049 144Q1049 106 1052 78Q1054 49 1060 21Q1056 12 1048 5Q1040 -2 1028 -2Q980 -1 930 0Q879 0 835 0Q791 0 743 0Q695 -1 666 -2Q658 7 656 16Q653 26 653 39Q696 79 740 119Q784 159 824 194Q863 229 884 256Q905 283 913 308Q921 332 921 358Q921 408 899 434Q877 460 834 460Q795 460 772 432Q750 404 739 321Q726 321 710 322Q695 324 685 328Q687 346 688 370Q689 393 688 416Q687 440 683 458Q712 479 754 492Q797 506 851 506Z M1521 -171Q1472 -171 1434 -158Q1397 -145 1375 -126Q1375 -118 1378 -110Q1382 -101 1389 -93Q1402 -102 1434 -112Q1466 -121 1516 -121Q1555 -121 1594 -104Q1634 -86 1660 -51Q1687 -16 1687 36Q1687 94 1651 133Q1615 172 1542 172Q1534 172 1526 170Q1517 169 1510 165Q1502 173 1497 183Q1492 193 1492 200Q1551 276 1592 330Q1633 383 1659 420H1537Q1508 420 1491 415Q1474 410 1464 396Q1453 381 1443 350Q1433 350 1422 353Q1410 356 1402 363Q1410 400 1412 434Q1413 467 1413 502Q1430 502 1454 502Q1479 501 1512 500Q1546 500 1588 500Q1630 500 1660 500Q1689 501 1711 502Q1733 502 1751 502Q1759 495 1762 484Q1764 474 1763 462Q1730 422 1686 368Q1643 313 1593 248Q1642 251 1686 229Q1731 207 1760 162Q1788 117 1788 50Q1788 -8 1756 -58Q1724 -109 1664 -140Q1604 -171 1521 -171Z M2368 0Q2292 0 2228 -2Q2165 -4 2101 -6Q2095 0 2089 10Q2083 21 2083 32L2424 506Q2436 506 2449 504Q2462 501 2469 496V-152Q2457 -152 2438 -156Q2419 -160 2404 -164Q2388 -169 2386 -171Q2380 -165 2378 -156Q2375 -148 2375 -138V21V35V379L2394 386L2177 59L2169 79H2433H2455H2556Q2567 79 2574 77Q2581 75 2585 70Q2581 61 2576 48Q2572 35 2570 22Q2567 10 2567 0Z M2969 502Q3004 501 3032 500Q3061 500 3087 500Q3113 500 3142 500Q3171 500 3182 514Q3194 528 3194 548Q3203 551 3216 552Q3228 553 3239 553Q3235 526 3234 494Q3233 463 3233 428Q3229 420 3218 415Q3208 410 3188 410Q3172 410 3144 410Q3116 410 3086 410Q3055 409 3030 408Q3005 408 2995 407L2971 306Q3057 288 3121 259Q3185 230 3220 184Q3256 138 3256 67Q3256 9 3233 -35Q3210 -79 3173 -110Q3136 -140 3093 -156Q3050 -171 3010 -171Q2973 -171 2942 -162Q2911 -152 2895 -139Q2895 -131 2898 -122Q2901 -114 2908 -106Q2921 -111 2948 -116Q2976 -121 3006 -121Q3046 -121 3080 -102Q3114 -82 3135 -46Q3156 -9 3156 40Q3156 83 3135 116Q3114 148 3080 170Q3046 192 3005 205Q2964 218 2925 222Q2917 227 2912 236Q2908 245 2908 253Z M3925 638Q3930 632 3932 626Q3935 619 3935 607Q3840 588 3776 548Q3712 508 3680 436Q3647 363 3647 244Q3647 183 3661 144Q3675 104 3696 81Q3717 58 3740 48Q3762 39 3780 39Q3821 39 3846 60Q3870 81 3882 112Q3893 144 3893 175Q3893 239 3870 274Q3846 309 3813 322Q3780 336 3750 336Q3725 336 3700 328Q3675 321 3641 298V334Q3688 367 3723 381Q3758 395 3795 395Q3881 395 3932 348Q3982 301 3982 212Q3982 162 3966 122Q3949 81 3920 52Q3890 22 3852 6Q3814 -9 3771 -9Q3700 -9 3650 20Q3601 48 3576 104Q3551 159 3551 240Q3551 329 3574 395Q3598 461 3638 506Q3677 552 3726 580Q3775 609 3826 622Q3878 636 3925 638Z M4371 -176Q4357 -171 4350 -160Q4342 -149 4342 -132Q4342 -69 4370 12Q4399 94 4450 194Q4501 293 4569 409H4413Q4385 409 4368 404Q4350 399 4340 384Q4329 369 4321 338Q4305 338 4292 341Q4280 344 4270 350Q4276 376 4280 400Q4284 424 4286 450Q4288 475 4289 503Q4328 501 4368 500Q4407 500 4467 500Q4502 500 4532 500Q4563 500 4592 501Q4620 502 4649 503Q4656 495 4660 486Q4663 477 4664 465Q4639 429 4614 388Q4590 348 4568 308Q4545 267 4526 230Q4502 183 4486 142Q4471 101 4463 61Q4455 21 4452 -24Q4448 -68 4448 -121Q4421 -132 4402 -147Q4382 -162 4371 -176Z M5140 316Q5105 291 5084 268Q5064 244 5056 216Q5047 189 5047 149Q5047 97 5080 66Q5113 36 5168 36Q5215 36 5242 63Q5270 90 5270 136Q5270 173 5252 203Q5235 233 5201 262Q5167 291 5117 323Q5073 352 5044 378Q5014 404 4999 432Q4984 459 4984 492Q4984 559 5030 598Q5077 637 5156 637Q5240 637 5289 602Q5338 566 5338 504Q5338 463 5319 434Q5300 406 5270 386Q5241 365 5210 348L5174 371Q5215 394 5232 421Q5248 448 5248 491Q5248 538 5224 565Q5201 592 5161 592Q5124 592 5102 570Q5079 549 5078 512Q5077 473 5098 446Q5120 418 5172 386Q5232 349 5276 315Q5319 281 5342 243Q5365 205 5365 156Q5365 80 5308 36Q5252 -9 5155 -9Q5064 -9 5010 32Q4957 72 4957 141Q4957 211 4996 256Q5036 300 5107 341Z M6010 156Q5973 122 5937 108Q5901 93 5860 93Q5804 93 5758 117Q5711 141 5683 184Q5655 226 5655 283Q5655 337 5672 378Q5689 420 5720 448Q5751 477 5792 492Q5832 506 5878 506Q5954 506 6003 476Q6052 446 6076 387Q6099 328 6099 242Q6099 163 6073 100Q6047 37 6004 -11Q5961 -59 5908 -92Q5856 -125 5803 -144Q5750 -164 5705 -170Q5698 -161 5696 -153Q5695 -145 5695 -134Q5801 -94 5870 -42Q5939 9 5973 78Q6007 146 6007 235Q6007 356 5968 409Q5929 462 5864 462Q5830 462 5804 442Q5778 423 5763 390Q5748 357 5748 318Q5748 266 5764 234Q5779 201 5804 184Q5828 168 5856 162Q5883 156 5908 156Q5938 156 5966 168Q5994 179 6014 201Z M6609 455Q6562 455 6530 430Q6498 405 6482 363Q6465 321 6465 269Q6465 232 6478 193Q6492 154 6518 121Q6544 88 6581 68Q6618 48 6664 48Q6713 48 6743 74Q6773 99 6787 142Q6801 184 6801 233Q6801 267 6788 306Q6776 344 6752 378Q6727 412 6691 434Q6655 455 6609 455ZM6638 506Q6703 506 6762 477Q6821 448 6858 392Q6895 336 6895 255Q6895 175 6860 116Q6824 56 6766 24Q6707 -9 6638 -9Q6569 -9 6508 24Q6448 56 6411 116Q6374 175 6374 255Q6374 315 6396 362Q6419 409 6457 441Q6495 473 6542 490Q6589 506 6638 506Z"/>
</svg>
